<svg id="Layer_1" data-name="Layer 1" xmlns="http://www.w3.org/2000/svg" viewBox="0 0 1354.56 1272.88"><defs><style>.cls-1{fill:#fff;}</style></defs><title>logo</title><rect width="1354.56" height="1272.88" rx="12" ry="12"/><path class="cls-1" d="M524.29,482.75l-60.64,75.5-1.95,2.42-4.42-3.55-.26-.21,63.84-79.48Q522.48,480,524.29,482.75Z"/><path class="cls-1" d="M539.61,463.68l-3.73,4.64a13.84,13.84,0,0,1-4.59-3.87l3.79-4.72a8,8,0,0,0,4.53,3.95Z"/><rect class="cls-1" x="392.95" y="625.28" width="126.79" height="6" transform="translate(-319.26 590.56) rotate(-51.22)"/><rect class="cls-1" x="338.15" y="707.42" width="182.01" height="6" transform="translate(-393.46 600.06) rotate(-51.22)"/><polygon class="cls-1" points="584.08 528.13 547.83 573.26 547.64 573.48 542.97 569.72 544.01 568.42 579.16 524.66 584.08 528.13"/><path class="cls-1" d="M597.59,511.29,593.83,516a13.92,13.92,0,0,1-4.68-3.76l3.76-4.68a7.85,7.85,0,0,0,2,2.33A7.76,7.76,0,0,0,597.59,511.29Z"/><polygon class="cls-1" points="661.48 540.27 595.25 622.47 592.64 625.7 589.08 622.83 587.97 621.94 654.39 539.52 661.48 540.27"/><path class="cls-1" d="M679.67,517.7l-3.77,4.68a13.67,13.67,0,0,1-4.67-3.76L675,514a7.81,7.81,0,0,0,2,2.34A7.91,7.91,0,0,0,679.67,517.7Z"/><path class="cls-1" d="M576,574.4a19.74,19.74,0,0,0-14.78,32.83A19.8,19.8,0,0,0,576,613.9a19.75,19.75,0,0,0,0-39.5Zm0,33.5a13.59,13.59,0,0,1-6.35-1.56,13.89,13.89,0,0,1-4.59-3.86A13.75,13.75,0,1,1,576,607.9Z"/><path class="cls-1" d="M581,587.92a8,8,0,0,0-13,6.23,8.11,8.11,0,0,0,.85,3.61,8,8,0,0,0,2.13,2.63,8.31,8.31,0,0,0,2.39,1.33h0a8.07,8.07,0,0,0,2.61.43,8,8,0,0,0,5-14.23Zm-3.46,7.49a2,2,0,0,1-1.34.73,2,2,0,0,1-1.47-.43,2,2,0,0,1-.3-2.81,1.92,1.92,0,0,1,1.34-.73,2,2,0,0,1,1.77,3.24Z"/><rect class="cls-1" x="457.1" y="650.08" width="141.9" height="6" transform="matrix(0.63, -0.78, 0.78, 0.63, -311.8, 653.98)"/><rect class="cls-1" x="304.73" y="782.27" width="201.59" height="6" transform="translate(-460.64 609.61) rotate(-51.22)"/><path class="cls-1" d="M663.27,567.1A19.73,19.73,0,0,0,648.51,600a19.75,19.75,0,0,0,14.76,6.65,19.75,19.75,0,0,0,0-39.5Zm0,33.5a13.69,13.69,0,0,1-6.34-1.55,13.84,13.84,0,0,1-4.59-3.87,13.74,13.74,0,1,1,10.93,5.42Z"/><path class="cls-1" d="M671.22,586a8,8,0,1,0-10.57,8.43,8,8,0,0,0,8.86-2.55A8,8,0,0,0,671.22,586Zm-6.39,2.12a2,2,0,0,1-3.12-2.5,2,2,0,0,1,1.34-.74,2,2,0,0,1,1.47.43,2,2,0,0,1,.74,1.34A2.05,2.05,0,0,1,664.83,588.1Z"/><rect class="cls-1" x="562.94" y="634.04" width="119.26" height="6" transform="translate(-263.97 723.43) rotate(-51.22)"/><path class="cls-1" d="M728.3,554.2h0L649.21,662.85l-1.84,2.52-4.71-3.43-.14-.1.08-.1.55-.77L725.5,547.85a22.92,22.92,0,0,0,2.8,6.35Z"/><path class="cls-1" d="M751.4,522.47l-3.51,4.83a13.82,13.82,0,0,1-4.8-3.63l3.56-4.88a7.75,7.75,0,0,0,1.91,2.23A7.9,7.9,0,0,0,751.4,522.47Z"/><path class="cls-1" d="M727.29,596.31A19.75,19.75,0,1,0,747,616.06,19.77,19.77,0,0,0,727.29,596.31Zm0,33.5a13.69,13.69,0,0,1-6.34-1.55,13.84,13.84,0,0,1-4.59-3.87,13.74,13.74,0,1,1,10.93,5.42Z"/><path class="cls-1" d="M735.24,615.19a7.89,7.89,0,0,0-2.94-5.36,8,8,0,1,0-10,12.47,8.1,8.1,0,0,0,2.4,1.32,7.76,7.76,0,0,0,2.6.44,8,8,0,0,0,6.25-3A7.89,7.89,0,0,0,735.24,615.19Zm-6.39,2.12a2,2,0,0,1-1.56.75,2,2,0,0,1-1.25-.44,2,2,0,1,1,3.24-1.78A1.94,1.94,0,0,1,728.85,617.31Z"/><path class="cls-1" d="M652.35,713.67a19.84,19.84,0,0,0-14.45-6.31,19.79,19.79,0,1,0,14.45,6.31ZM637.9,740.86a13.75,13.75,0,1,1,5.92-26.16,13.9,13.9,0,0,1,4.72,3.71,13.74,13.74,0,0,1-10.64,22.45Z"/><path class="cls-1" d="M644.8,723.07a7.88,7.88,0,0,0-1.89-2.2,7.74,7.74,0,0,0-2.87-1.46,8,8,0,1,0-2.16,15.7,6.49,6.49,0,0,0,.88-.05,7.89,7.89,0,0,0,5.37-2.94A8,8,0,0,0,644.8,723.07Zm-5.34,5.29a2,2,0,0,1-1.35.74h-.23a2,2,0,0,1-1.24-.44,2,2,0,0,1-.73-1.34,2,2,0,0,1,.43-1.47,2,2,0,0,1,1.56-.75,2,2,0,0,1,1.25.44A2,2,0,0,1,639.46,728.36Z"/><path class="cls-1" d="M538.2,776.94a19.26,19.26,0,0,0-4.67-3.75h0a19.5,19.5,0,0,0-9.87-2.67,19.75,19.75,0,1,0,19.75,19.75A19.57,19.57,0,0,0,538.2,776.94ZM523.65,804a13.75,13.75,0,1,1,6.06-26.09,13.92,13.92,0,0,1,4.68,3.76A13.75,13.75,0,0,1,523.65,804Z"/><path class="cls-1" d="M530.62,786.37a7.94,7.94,0,0,0-2-2.34,7.77,7.77,0,0,0-2.7-1.41,8,8,0,1,0-2.32,15.65,6.49,6.49,0,0,0,.88,0,7.91,7.91,0,0,0,5.37-2.94A8,8,0,0,0,530.62,786.37Zm-5.42,5.15a2,2,0,0,1-1.34.74,2,2,0,1,1,1.34-.74Z"/><path class="cls-1" d="M542.63,938.24a19.74,19.74,0,1,0,5.19,13.33A19.74,19.74,0,0,0,542.63,938.24Zm-14.56,27.08a13.75,13.75,0,0,1,0-27.5,13.77,13.77,0,0,1,13.75,13.75A13.76,13.76,0,0,1,528.07,965.32Z"/><path class="cls-1" d="M536,950.7a8,8,0,0,0-2.95-5.37,7.77,7.77,0,0,0-2.7-1.41,8,8,0,0,0-8.54,2.64,7.91,7.91,0,0,0-1.76,5A8,8,0,1,0,536,950.7Zm-6.4,2.12a2,2,0,0,1-1.56.75,2,2,0,0,1-1.56-3.25,2,2,0,0,1,2.82-.31,2,2,0,0,1,.73,1.34A2,2,0,0,1,529.63,952.82Z"/><path class="cls-1" d="M621.61,903.51a19.73,19.73,0,1,0,5.2,13.33A19.62,19.62,0,0,0,621.61,903.51Zm-14.55,27.08a13.74,13.74,0,1,1,13.75-13.75A13.77,13.77,0,0,1,607.06,930.59Z"/><path class="cls-1" d="M614,912.93a8,8,0,0,0-4.68-3.75,7.67,7.67,0,0,0-3.17-.3,8,8,0,1,0,7.85,4Zm-5.42,5.16a2,2,0,0,1-2.81.3,2,2,0,0,1,1-3.54,2,2,0,0,1,1.47.43A2,2,0,0,1,608.62,918.09Z"/><path class="cls-1" d="M791.65,904.76A19.28,19.28,0,0,0,787,901a19.76,19.76,0,1,0,4.7,3.73Zm-14.48,27.16a13.75,13.75,0,0,1,0-27.5,13.52,13.52,0,0,1,6,1.38,13.75,13.75,0,0,1-6,26.12Z"/><path class="cls-1" d="M784.13,914.23a7.86,7.86,0,0,0-2-2.29,7.74,7.74,0,0,0-2.75-1.44,8,8,0,1,0-2.27,15.68,8.65,8.65,0,0,0,.88,0,8,8,0,0,0,6.09-11.9Zm-5.4,5.2a2,2,0,0,1-1.34.73h-.23a2,2,0,0,1-2-1.78,2,2,0,1,1,3.54,1Z"/><path class="cls-1" d="M760.12,764a19.26,19.26,0,0,0-4.67-3.75,19.54,19.54,0,0,0-9.88-2.67,19.75,19.75,0,1,0,19.75,19.75A19.57,19.57,0,0,0,760.12,764Zm-14.55,27.08A13.75,13.75,0,1,1,751.63,765a13.92,13.92,0,0,1,4.68,3.76,13.75,13.75,0,0,1-10.74,22.33Z"/><path class="cls-1" d="M752.55,773.47a7.86,7.86,0,0,0-4.68-3.75,8,8,0,1,0,4.68,3.75Zm-5.42,5.15a2,2,0,0,1-1.57.75,1.92,1.92,0,0,1-1.24-.44,2,2,0,0,1,1.25-3.56,2,2,0,0,1,1.25.44A2,2,0,0,1,747.13,778.62Z"/><path class="cls-1" d="M487.85,890.8a19.11,19.11,0,0,0-4.67-3.76,19.57,19.57,0,0,0-9.88-2.66,19.75,19.75,0,1,0,19.75,19.75A19.57,19.57,0,0,0,487.85,890.8ZM473.3,917.88a13.75,13.75,0,1,1,13.75-13.75A13.77,13.77,0,0,1,473.3,917.88Z"/><path class="cls-1" d="M481.26,903.26a8,8,0,0,0-2.94-5.37,7.76,7.76,0,0,0-2.71-1.42,8,8,0,0,0-8.54,2.65,8,8,0,1,0,14.19,4.14Zm-6.4,2.12a2,2,0,1,1-.3-2.81,2,2,0,0,1,.3,2.81Z"/><rect class="cls-1" x="614.98" y="669" width="133.99" height="6" transform="translate(-269.02 782.81) rotate(-51.22)"/><polygon class="cls-1" points="784.3 601.43 789.72 604.22 701.55 721.83 699.79 724.18 695.15 720.7 695 720.58 784.3 601.43"/><path class="cls-1" d="M814.39,571.3l-3.63,4.84a13.72,13.72,0,0,1-4.66-3.79l3.57-4.76a7.85,7.85,0,0,0,1.93,2.26A8.1,8.1,0,0,0,814.39,571.3Z"/><path class="cls-1" d="M792.36,648.44a19.73,19.73,0,0,0-14.53,33.1,19.21,19.21,0,0,0,4.69,3.76,19.57,19.57,0,0,0,9.84,2.64,19.75,19.75,0,1,0,0-39.5Zm0,33.5a13.75,13.75,0,1,1,13.75-13.75A13.65,13.65,0,0,1,792.36,681.94Z"/><path class="cls-1" d="M800.31,667.33a8,8,0,1,0-14.93,4.77,7.78,7.78,0,0,0,2,2.33,8,8,0,0,0,2.71,1.43,8.13,8.13,0,0,0,2.29.33,8,8,0,0,0,8-8.86Zm-6.39,2.12a2,2,0,0,1-2.81.3,2,2,0,0,1-.31-2.81,1.92,1.92,0,0,1,1.34-.73l.22,0a2,2,0,0,1,2,1.79A2,2,0,0,1,793.92,669.45Z"/><rect class="cls-1" x="697.32" y="713.3" width="113.18" height="6" transform="translate(-276.32 858.05) rotate(-51.37)"/><rect class="cls-1" x="579.47" y="843.54" width="168.12" height="6" transform="translate(-411.99 833.65) rotate(-51.22)"/><rect class="cls-1" x="666.27" y="806.37" width="168.12" height="6" transform="translate(-350.57 887.43) rotate(-51.22)"/><path class="cls-1" d="M910.87,576.36,760.12,764l-3.81,4.75-3.76,4.68L749.69,777,745,773.28l2.86-3.56,3.76-4.69,3.82-4.74L904,575.38a12.42,12.42,0,0,1,6.91,1Z"/><path class="cls-1" d="M928.31,554.65l-3.72,4.64h0a14.06,14.06,0,0,1-4.59-3.87l3.8-4.73a8,8,0,0,0,4.52,4Z"/><path class="cls-1" d="M884.86,638.18A19.73,19.73,0,0,0,870.1,671a19.75,19.75,0,0,0,14.76,6.65,19.75,19.75,0,0,0,0-39.5Zm0,33.5a13.75,13.75,0,1,1,13.75-13.75A13.69,13.69,0,0,1,884.86,671.68Z"/><path class="cls-1" d="M889.87,651.7a8,8,0,0,0-12.15,9.84,7.81,7.81,0,0,0,2.13,2.63,8.13,8.13,0,0,0,2.38,1.33h0a8.07,8.07,0,0,0,2.61.43,8,8,0,0,0,5-14.23Zm-3.45,7.49a2,2,0,0,1-3.55-1,2,2,0,0,1,.43-1.47,1.92,1.92,0,0,1,1.34-.73,2,2,0,0,1,1.78,3.24Z"/><rect class="cls-1" x="772.55" y="710.87" width="133.99" height="6" transform="translate(-242.78 921.29) rotate(-51.22)"/><path class="cls-1" d="M955.15,602.31a19.73,19.73,0,0,0-14.65,33,19.26,19.26,0,0,0,4.63,3.79,19.75,19.75,0,1,0,10-36.76Zm0,33.5a13.61,13.61,0,0,1-6.26-1.51,13.9,13.9,0,0,1-4.61-3.83,13.74,13.74,0,1,1,10.87,5.34Z"/><path class="cls-1" d="M960.16,615.82a8,8,0,0,0-13,7.11,7.71,7.71,0,0,0,.84,2.76h0a7.86,7.86,0,0,0,2.11,2.6,8.06,8.06,0,0,0,2.41,1.33,8,8,0,0,0,7.61-13.81Zm-3.45,7.49a2,2,0,0,1-1.57.75,2,2,0,0,1-1.25-.44,2,2,0,0,1-.73-1.34,2,2,0,0,1,.43-1.47,2,2,0,0,1,1.56-.75,2,2,0,0,1,1.25.44A2,2,0,0,1,956.71,623.31Z"/><rect class="cls-1" x="837.91" y="678.1" width="140.77" height="6" transform="translate(-188.47 974.37) rotate(-51.84)"/><rect class="cls-1" x="501.61" y="730.77" width="134.84" height="6" transform="translate(-359.39 717.84) rotate(-51.22)"/><rect class="cls-1" x="487.27" y="853.61" width="234.18" height="6" transform="translate(-441.95 791.28) rotate(-51.22)"/><rect class="cls-1" x="438.09" y="817.37" width="205" height="6" transform="translate(-437.53 728.03) rotate(-51.22)"/><rect class="cls-1" x="765.4" y="883.63" width="73.64" height="6" transform="translate(-390.98 963.67) rotate(-51.56)"/><rect class="cls-1" x="598.37" y="620.28" width="6" height="64.91" transform="translate(-164.68 204.55) rotate(-17.02)"/><rect class="cls-1" x="469.89" y="554.41" width="6" height="89.62" transform="translate(-153.06 162.33) rotate(-16.81)"/><rect class="cls-1" x="592.02" y="679.71" width="6" height="64.51" transform="matrix(0.96, -0.29, 0.29, 0.96, -179.89, 201.61)"/><path class="cls-1" d="M719,942.37a19.73,19.73,0,1,0,5.2,13.33A19.63,19.63,0,0,0,719,942.37Zm-14.55,27.08a13.75,13.75,0,0,1,0-27.5,13.78,13.78,0,0,1,13.75,13.75A13.77,13.77,0,0,1,704.44,969.45Z"/><path class="cls-1" d="M711.42,951.79a8.08,8.08,0,0,0-2-2.33,7.81,7.81,0,0,0-2.72-1.42,8,8,0,0,0-7.3,13.89,7.89,7.89,0,0,0,5,1.77,8.65,8.65,0,0,0,.88-.05,8,8,0,0,0,7.13-7.94A8.06,8.06,0,0,0,711.42,951.79ZM706,957a2,2,0,0,1-1.35.73,2,2,0,0,1-1.47-.42,2,2,0,0,1-.73-1.35,2,2,0,0,1,3.24-1.77A2,2,0,0,1,706,957Z"/><path class="cls-1" d="M708.08,866.77A19.11,19.11,0,0,0,703.4,863a19.48,19.48,0,0,0-9.88-2.67,19.79,19.79,0,1,0,14.56,6.43Zm-14.56,27.07a13.76,13.76,0,1,1,10.74-22.32,13.62,13.62,0,0,1,3,8.57A13.77,13.77,0,0,1,693.52,893.84Z"/><path class="cls-1" d="M701.48,879.22a8,8,0,1,0-8,8.87,8.77,8.77,0,0,0,.88,0,8,8,0,0,0,7.09-8.83Zm-6.4,2.12a2,2,0,0,1-2.81.31,2,2,0,0,1,1-3.55h.22a1.94,1.94,0,0,1,1.24.44,2,2,0,0,1,.74,1.35A1.93,1.93,0,0,1,695.08,881.34Z"/><path class="cls-1" d="M838.3,769.29a19.73,19.73,0,0,0-14.55,33.08,19.73,19.73,0,0,0,14.55,6.42,19.75,19.75,0,0,0,0-39.5Zm0,33.5a13.71,13.71,0,0,1-6.06-1.41h0a13.89,13.89,0,0,1-4.67-3.76,13.75,13.75,0,1,1,10.74,5.17Z"/><path class="cls-1" d="M843.31,782.8a8,8,0,0,0-10,12.48,7.74,7.74,0,0,0,2.71,1.41,7.49,7.49,0,0,0,2.29.35,8,8,0,0,0,5-14.24Zm-3.45,7.49A2,2,0,1,1,838.3,787a2,2,0,0,1,1.25.44A2,2,0,0,1,839.86,790.29Z"/><rect class="cls-1" x="669.07" y="869.54" width="204.33" height="6" transform="translate(-392 927.34) rotate(-51.22)"/><rect class="cls-1" x="808.17" y="761.27" width="6" height="100.76" transform="translate(-186.23 244.23) rotate(-15.38)"/><rect class="cls-1" x="703.62" y="718.78" width="6" height="65.95" transform="translate(-173.08 212.71) rotate(-15.27)"/><rect class="cls-1" x="658.18" y="657.97" width="6" height="109.69" transform="translate(-177.97 221.81) rotate(-16.82)"/><rect class="cls-1" x="492.9" y="572.6" width="54.92" height="6" transform="translate(-91.35 98.21) rotate(-9.92)"/><path class="cls-1" d="M506.9,721.23A19.75,19.75,0,1,0,526.65,741,19.77,19.77,0,0,0,506.9,721.23Zm0,33.5a13.69,13.69,0,0,1-6.34-1.55,14,14,0,0,1-4.6-3.87,13.75,13.75,0,1,1,10.94,5.42Z"/><path class="cls-1" d="M511.9,734.74a8,8,0,0,0-12.14,9.84,8,8,0,0,0,7.12,4.4,8.65,8.65,0,0,0,.88-.05,8,8,0,0,0,4.14-14.19Zm-3.45,7.49a2,2,0,0,1-1.34.74,2,2,0,1,1,1.34-.74Z"/><rect class="cls-1" x="438.57" y="772.83" width="79.9" height="6" transform="translate(-426 662.99) rotate(-51.22)"/><rect class="cls-1" x="377.52" y="810.06" width="78.58" height="6" transform="translate(-128.47 79.94) rotate(-9.5)"/><rect class="cls-1" x="676.63" y="760.11" width="44.55" height="6" transform="translate(-115.74 125.02) rotate(-9.44)"/><rect class="cls-1" x="800.43" y="736.98" width="67.79" height="6" transform="translate(-105.19 139.16) rotate(-8.97)"/><rect class="cls-1" x="466.68" y="703.82" width="19.79" height="6"/><path class="cls-1" d="M383.58,771.94a19.35,19.35,0,0,0-4.68-3.76,19.79,19.79,0,1,0,4.68,3.76ZM369,799a13.75,13.75,0,1,1,13.75-13.75A13.77,13.77,0,0,1,369,799Z"/><path class="cls-1" d="M376,781.37a7.81,7.81,0,0,0-2-2.34,8,8,0,1,0-5,14.23,8,8,0,0,0,8-8A7.92,7.92,0,0,0,376,781.37Zm-5.42,5.15a2,2,0,1,1-1.56-3.25,2,2,0,0,1,2,1.78A2,2,0,0,1,370.59,786.52Z"/><path class="cls-1" d="M353.82,854.42a19.35,19.35,0,0,0-4.68-3.76,19.79,19.79,0,1,0,4.68,3.76ZM339.27,881.5a13.75,13.75,0,1,1,6.06-26.09,13.92,13.92,0,0,1,4.68,3.76,13.75,13.75,0,0,1-10.74,22.33Z"/><path class="cls-1" d="M346.25,863.85a7.81,7.81,0,0,0-2-2.34A8,8,0,0,0,333,862.74,8,8,0,0,0,334.26,874a7.93,7.93,0,0,0,5,1.76c.29,0,.59,0,.89,0a8,8,0,0,0,6.11-11.85ZM340.82,869a2,2,0,0,1-1.34.74,2,2,0,0,1-1.77-3.24,2,2,0,0,1,1.34-.74h.22a2,2,0,0,1,1.55,3.25Z"/><path class="cls-1" d="M429.07,667a19.79,19.79,0,0,0-4.68-3.76,19.53,19.53,0,0,0-9.88-2.66A19.77,19.77,0,1,0,429.07,667Zm-14.56,27.08a13.75,13.75,0,1,1,13.75-13.75A13.77,13.77,0,0,1,414.51,694.11Z"/><path class="cls-1" d="M421.49,676.46a7.81,7.81,0,0,0-2-2.34,8.06,8.06,0,0,0-2.7-1.42,7.72,7.72,0,0,0-3.18-.3,8,8,0,1,0,7.85,4.06Zm-5.42,5.15A2,2,0,1,1,413,679.1a2,2,0,0,1,1.34-.73h.22a2,2,0,0,1,1.25.44A2,2,0,0,1,416.07,681.61Z"/><path class="cls-1" d="M682,496.3a13.77,13.77,0,0,0-13.75,13.75,13.62,13.62,0,0,0,3,8.57L675,514a8,8,0,1,1,13.22,1.11,8,8,0,0,1-6.24,3,7.55,7.55,0,0,1-2.3-.35l-3.77,4.68A13.59,13.59,0,0,0,682,523.8a13.75,13.75,0,1,0,0-27.5Zm0,0a13.77,13.77,0,0,0-13.75,13.75A13.77,13.77,0,0,0,682,523.8a13.75,13.75,0,1,0,0-27.5Zm6.24,18.76a8,8,0,0,1-6.24,3,7.55,7.55,0,0,1-2.3-.35,7.91,7.91,0,0,1-2.71-1.41,7.81,7.81,0,0,1-2-2.34,8,8,0,1,1,13.22,1.11ZM682,496.3a13.77,13.77,0,0,0-13.75,13.75A13.77,13.77,0,0,0,682,523.8a13.75,13.75,0,1,0,0-27.5Zm6.24,18.76a8,8,0,0,1-6.24,3,7.55,7.55,0,0,1-2.3-.35,7.91,7.91,0,0,1-2.71-1.41,7.81,7.81,0,0,1-2-2.34,8,8,0,1,1,13.22,1.11ZM682,496.3a13.77,13.77,0,0,0-13.75,13.75A13.77,13.77,0,0,0,682,523.8a13.75,13.75,0,1,0,0-27.5Zm6.24,18.76a8,8,0,0,1-6.24,3,7.55,7.55,0,0,1-2.3-.35,7.91,7.91,0,0,1-2.71-1.41,7.81,7.81,0,0,1-2-2.34,8,8,0,1,1,13.22,1.11ZM682,496.3a13.77,13.77,0,0,0-13.75,13.75A13.77,13.77,0,0,0,682,523.8a13.75,13.75,0,1,0,0-27.5Zm6.24,18.76a8,8,0,0,1-6.24,3,7.55,7.55,0,0,1-2.3-.35,7.91,7.91,0,0,1-2.71-1.41,7.81,7.81,0,0,1-2-2.34,8,8,0,1,1,13.22,1.11Zm65.36-14a13.75,13.75,0,1,0,13.75,13.75A13.77,13.77,0,0,0,753.57,501Zm6.24,18.76a8,8,0,0,1-6.25,3,7.57,7.57,0,0,1-2.16-.31,7.9,7.9,0,0,1-2.84-1.45,7.75,7.75,0,0,1-1.91-2.23,8,8,0,1,1,13.16,1ZM753.57,501a13.75,13.75,0,1,0,13.75,13.75A13.77,13.77,0,0,0,753.57,501Zm6.24,18.76a8,8,0,0,1-6.25,3,7.57,7.57,0,0,1-2.16-.31,7.9,7.9,0,0,1-2.84-1.45,7.75,7.75,0,0,1-1.91-2.23,8,8,0,1,1,13.16,1ZM682,496.3a13.77,13.77,0,0,0-13.75,13.75A13.77,13.77,0,0,0,682,523.8a13.75,13.75,0,1,0,0-27.5Zm6.24,18.76a8,8,0,0,1-6.24,3,7.55,7.55,0,0,1-2.3-.35,7.91,7.91,0,0,1-2.71-1.41,7.81,7.81,0,0,1-2-2.34,8,8,0,1,1,13.22,1.11Zm65.36-14a13.75,13.75,0,1,0,13.75,13.75A13.77,13.77,0,0,0,753.57,501Zm6.24,18.76a8,8,0,0,1-6.25,3,7.57,7.57,0,0,1-2.16-.31,7.9,7.9,0,0,1-2.84-1.45,7.75,7.75,0,0,1-1.91-2.23,8,8,0,1,1,13.16,1Zm57.08,30.3a13.77,13.77,0,0,0-13.75,13.75,13.63,13.63,0,0,0,3,8.51l3.57-4.76a8,8,0,1,1,7.81,4,6.64,6.64,0,0,1-.89.05,7.75,7.75,0,0,1-2.2-.31l-3.63,4.84a13.6,13.6,0,0,0,6.13,1.45,13.75,13.75,0,0,0,0-27.5ZM682,496.3a13.77,13.77,0,0,0-13.75,13.75A13.77,13.77,0,0,0,682,523.8a13.75,13.75,0,1,0,0-27.5Zm6.24,18.76a8,8,0,0,1-6.24,3,7.55,7.55,0,0,1-2.3-.35,7.91,7.91,0,0,1-2.71-1.41,7.81,7.81,0,0,1-2-2.34,8,8,0,1,1,13.22,1.11Zm65.36-14a13.75,13.75,0,1,0,13.75,13.75A13.77,13.77,0,0,0,753.57,501Zm6.24,18.76a8,8,0,0,1-6.25,3,7.57,7.57,0,0,1-2.16-.31,7.9,7.9,0,0,1-2.84-1.45,7.75,7.75,0,0,1-1.91-2.23,8,8,0,1,1,13.16,1Zm57.08,30.3a13.77,13.77,0,0,0-13.75,13.75,13.63,13.63,0,0,0,3,8.51l3.57-4.76a8,8,0,1,1,7.81,4,6.64,6.64,0,0,1-.89.05,7.75,7.75,0,0,1-2.2-.31l-3.63,4.84a13.6,13.6,0,0,0,6.13,1.45,13.75,13.75,0,0,0,0-27.5ZM682,496.3a13.77,13.77,0,0,0-13.75,13.75A13.77,13.77,0,0,0,682,523.8a13.75,13.75,0,1,0,0-27.5Zm6.24,18.76a8,8,0,0,1-6.24,3,7.55,7.55,0,0,1-2.3-.35,7.91,7.91,0,0,1-2.71-1.41,7.81,7.81,0,0,1-2-2.34,8,8,0,1,1,13.22,1.11Zm65.36-14a13.75,13.75,0,1,0,13.75,13.75A13.77,13.77,0,0,0,753.57,501Zm6.24,18.76a8,8,0,0,1-6.25,3,7.57,7.57,0,0,1-2.16-.31,7.9,7.9,0,0,1-2.84-1.45,7.75,7.75,0,0,1-1.91-2.23,8,8,0,1,1,13.16,1Zm57.08,30.3a13.77,13.77,0,0,0-13.75,13.75,13.63,13.63,0,0,0,3,8.51l3.57-4.76a8,8,0,1,1,7.81,4,6.64,6.64,0,0,1-.89.05,7.75,7.75,0,0,1-2.2-.31l-3.63,4.84a13.6,13.6,0,0,0,6.13,1.45,13.75,13.75,0,0,0,0-27.5ZM682,496.3a13.77,13.77,0,0,0-13.75,13.75A13.77,13.77,0,0,0,682,523.8a13.75,13.75,0,1,0,0-27.5Zm6.24,18.76a8,8,0,0,1-6.24,3,7.55,7.55,0,0,1-2.3-.35,7.91,7.91,0,0,1-2.71-1.41,7.81,7.81,0,0,1-2-2.34,8,8,0,1,1,13.22,1.11Zm65.36-14a13.75,13.75,0,1,0,13.75,13.75A13.77,13.77,0,0,0,753.57,501Zm6.24,18.76a8,8,0,0,1-6.25,3,7.57,7.57,0,0,1-2.16-.31,7.9,7.9,0,0,1-2.84-1.45,7.75,7.75,0,0,1-1.91-2.23,8,8,0,1,1,13.16,1Zm57.08,30.3a13.77,13.77,0,0,0-13.75,13.75,13.63,13.63,0,0,0,3,8.51l3.57-4.76a8,8,0,1,1,7.81,4,6.64,6.64,0,0,1-.89.05,7.75,7.75,0,0,1-2.2-.31l-3.63,4.84a13.6,13.6,0,0,0,6.13,1.45,13.75,13.75,0,0,0,0-27.5ZM682,496.3a13.77,13.77,0,0,0-13.75,13.75A13.77,13.77,0,0,0,682,523.8a13.75,13.75,0,1,0,0-27.5Zm6.24,18.76a8,8,0,0,1-6.24,3,7.55,7.55,0,0,1-2.3-.35,7.91,7.91,0,0,1-2.71-1.41,7.81,7.81,0,0,1-2-2.34,8,8,0,1,1,13.22,1.11Zm65.36-14a13.75,13.75,0,1,0,13.75,13.75A13.77,13.77,0,0,0,753.57,501Zm6.24,18.76a8,8,0,0,1-6.25,3,7.57,7.57,0,0,1-2.16-.31,7.9,7.9,0,0,1-2.84-1.45,7.75,7.75,0,0,1-1.91-2.23,8,8,0,1,1,13.16,1Zm57.08,30.3a13.77,13.77,0,0,0-13.75,13.75,13.77,13.77,0,0,0,13.75,13.75,13.75,13.75,0,0,0,0-27.5Zm6,18.53a7.94,7.94,0,0,1-5.37,2.94,6.64,6.64,0,0,1-.89.05,7.75,7.75,0,0,1-2.2-.31,8.1,8.1,0,0,1-2.79-1.45,7.85,7.85,0,0,1-1.93-2.26,8,8,0,1,1,13.18,1Zm-6-18.53a13.77,13.77,0,0,0-13.75,13.75,13.77,13.77,0,0,0,13.75,13.75,13.75,13.75,0,0,0,0-27.5Zm6,18.53a7.94,7.94,0,0,1-5.37,2.94,6.64,6.64,0,0,1-.89.05,7.75,7.75,0,0,1-2.2-.31,8.1,8.1,0,0,1-2.79-1.45,7.85,7.85,0,0,1-1.93-2.26,8,8,0,1,1,13.18,1ZM682,496.3a13.77,13.77,0,0,0-13.75,13.75A13.77,13.77,0,0,0,682,523.8a13.75,13.75,0,1,0,0-27.5Zm6.24,18.76a8,8,0,0,1-6.24,3,7.55,7.55,0,0,1-2.3-.35,7.91,7.91,0,0,1-2.71-1.41,7.81,7.81,0,0,1-2-2.34,8,8,0,1,1,13.22,1.11Zm65.36-14a13.75,13.75,0,1,0,13.75,13.75A13.77,13.77,0,0,0,753.57,501Zm6.24,18.76a8,8,0,0,1-6.25,3,7.57,7.57,0,0,1-2.16-.31,7.9,7.9,0,0,1-2.84-1.45,7.75,7.75,0,0,1-1.91-2.23,8,8,0,1,1,13.16,1Zm57.08,30.3a13.77,13.77,0,0,0-13.75,13.75,13.77,13.77,0,0,0,13.75,13.75,13.75,13.75,0,0,0,0-27.5Zm6,18.53a7.94,7.94,0,0,1-5.37,2.94,6.64,6.64,0,0,1-.89.05,7.75,7.75,0,0,1-2.2-.31,8.1,8.1,0,0,1-2.79-1.45,7.85,7.85,0,0,1-1.93-2.26,8,8,0,1,1,13.18,1Zm108.08-35.28A13.75,13.75,0,0,0,920,555.42l3.8-4.73a8,8,0,1,1,13.37,1.41,7.93,7.93,0,0,1-5.37,2.94,8.65,8.65,0,0,1-.88.05,7.89,7.89,0,0,1-2.6-.44l-3.72,4.64a13.75,13.75,0,1,0,6.34-25.95Zm-114,16.75a13.77,13.77,0,0,0-13.75,13.75,13.77,13.77,0,0,0,13.75,13.75,13.75,13.75,0,0,0,0-27.5Zm6,18.53a7.94,7.94,0,0,1-5.37,2.94,6.64,6.64,0,0,1-.89.05,7.75,7.75,0,0,1-2.2-.31,8.1,8.1,0,0,1-2.79-1.45,7.85,7.85,0,0,1-1.93-2.26,8,8,0,1,1,13.18,1ZM682,496.3a13.77,13.77,0,0,0-13.75,13.75A13.77,13.77,0,0,0,682,523.8a13.75,13.75,0,1,0,0-27.5Zm6.24,18.76a8,8,0,0,1-6.24,3,7.55,7.55,0,0,1-2.3-.35,7.91,7.91,0,0,1-2.71-1.41,7.81,7.81,0,0,1-2-2.34,8,8,0,1,1,13.22,1.11Zm65.36-14a13.75,13.75,0,1,0,13.75,13.75A13.77,13.77,0,0,0,753.57,501Zm6.24,18.76a8,8,0,0,1-6.25,3,7.57,7.57,0,0,1-2.16-.31,7.9,7.9,0,0,1-2.84-1.45,7.75,7.75,0,0,1-1.91-2.23,8,8,0,1,1,13.16,1Zm57.08,30.3a13.77,13.77,0,0,0-13.75,13.75,13.77,13.77,0,0,0,13.75,13.75,13.75,13.75,0,0,0,0-27.5Zm6,18.53a7.94,7.94,0,0,1-5.37,2.94,6.64,6.64,0,0,1-.89.05,7.75,7.75,0,0,1-2.2-.31,8.1,8.1,0,0,1-2.79-1.45,7.85,7.85,0,0,1-1.93-2.26,8,8,0,1,1,13.18,1Zm108.08-35.28A13.75,13.75,0,0,0,920,555.42l3.8-4.73a8,8,0,1,1,13.37,1.41,7.93,7.93,0,0,1-5.37,2.94,8.65,8.65,0,0,1-.88.05,7.89,7.89,0,0,1-2.6-.44l-3.72,4.64a13.75,13.75,0,1,0,6.34-25.95Zm-114,16.75a13.77,13.77,0,0,0-13.75,13.75,13.77,13.77,0,0,0,13.75,13.75,13.75,13.75,0,0,0,0-27.5Zm6,18.53a7.94,7.94,0,0,1-5.37,2.94,6.64,6.64,0,0,1-.89.05,7.75,7.75,0,0,1-2.2-.31,8.1,8.1,0,0,1-2.79-1.45,7.85,7.85,0,0,1-1.93-2.26,8,8,0,1,1,13.18,1ZM682,496.3a13.77,13.77,0,0,0-13.75,13.75A13.77,13.77,0,0,0,682,523.8a13.75,13.75,0,1,0,0-27.5Zm6.24,18.76a8,8,0,0,1-6.24,3,7.55,7.55,0,0,1-2.3-.35,7.91,7.91,0,0,1-2.71-1.41,7.81,7.81,0,0,1-2-2.34,8,8,0,1,1,13.22,1.11Zm65.36-14a13.75,13.75,0,1,0,13.75,13.75A13.77,13.77,0,0,0,753.57,501Zm6.24,18.76a8,8,0,0,1-6.25,3,7.57,7.57,0,0,1-2.16-.31,7.9,7.9,0,0,1-2.84-1.45,7.75,7.75,0,0,1-1.91-2.23,8,8,0,1,1,13.16,1Zm57.08,30.3a13.77,13.77,0,0,0-13.75,13.75,13.77,13.77,0,0,0,13.75,13.75,13.75,13.75,0,0,0,0-27.5Zm6,18.53a7.94,7.94,0,0,1-5.37,2.94,6.64,6.64,0,0,1-.89.05,7.75,7.75,0,0,1-2.2-.31,8.1,8.1,0,0,1-2.79-1.45,7.85,7.85,0,0,1-1.93-2.26,8,8,0,1,1,13.18,1Zm108.08-35.28A13.75,13.75,0,0,0,920,555.42a14.06,14.06,0,0,0,4.59,3.87h0a13.75,13.75,0,1,0,6.34-25.95Zm6.23,18.76a7.93,7.93,0,0,1-5.37,2.94,8.65,8.65,0,0,1-.88.05,8,8,0,0,1-7.12-4.4,8,8,0,1,1,13.37,1.41Zm-120.27-2a13.77,13.77,0,0,0-13.75,13.75,13.77,13.77,0,0,0,13.75,13.75,13.75,13.75,0,0,0,0-27.5Zm6,18.53a7.94,7.94,0,0,1-5.37,2.94,6.64,6.64,0,0,1-.89.05,7.75,7.75,0,0,1-2.2-.31,8.1,8.1,0,0,1-2.79-1.45,7.85,7.85,0,0,1-1.93-2.26,8,8,0,1,1,13.18,1ZM682,496.3a13.77,13.77,0,0,0-13.75,13.75A13.77,13.77,0,0,0,682,523.8a13.75,13.75,0,1,0,0-27.5Zm6.24,18.76a8,8,0,0,1-6.24,3,7.55,7.55,0,0,1-2.3-.35,7.91,7.91,0,0,1-2.71-1.41,7.81,7.81,0,0,1-2-2.34,8,8,0,1,1,13.22,1.11Zm65.36-14a13.75,13.75,0,1,0,13.75,13.75A13.77,13.77,0,0,0,753.57,501Zm6.24,18.76a8,8,0,0,1-6.25,3,7.57,7.57,0,0,1-2.16-.31,7.9,7.9,0,0,1-2.84-1.45,7.75,7.75,0,0,1-1.91-2.23,8,8,0,1,1,13.16,1Zm57.08,30.3a13.77,13.77,0,0,0-13.75,13.75,13.77,13.77,0,0,0,13.75,13.75,13.75,13.75,0,0,0,0-27.5Zm6,18.53a7.94,7.94,0,0,1-5.37,2.94,6.64,6.64,0,0,1-.89.05,7.75,7.75,0,0,1-2.2-.31,8.1,8.1,0,0,1-2.79-1.45,7.85,7.85,0,0,1-1.93-2.26,8,8,0,1,1,13.18,1Zm108.08-35.28A13.75,13.75,0,0,0,920,555.42a14.06,14.06,0,0,0,4.59,3.87h0a13.75,13.75,0,1,0,6.34-25.95Zm6.23,18.76a7.93,7.93,0,0,1-5.37,2.94,8.65,8.65,0,0,1-.88.05,8,8,0,0,1-7.12-4.4,8,8,0,1,1,13.37,1.41Zm-120.27-2a13.77,13.77,0,0,0-13.75,13.75,13.77,13.77,0,0,0,13.75,13.75,13.75,13.75,0,0,0,0-27.5Zm6,18.53a7.94,7.94,0,0,1-5.37,2.94,6.64,6.64,0,0,1-.89.05,7.75,7.75,0,0,1-2.2-.31,8.1,8.1,0,0,1-2.79-1.45,7.85,7.85,0,0,1-1.93-2.26,8,8,0,1,1,13.18,1Zm-223-78.73a13.75,13.75,0,0,0-10.74,22.33l3.76-4.68a8,8,0,0,1,12-10.14,8,8,0,0,1-5,14.23,7.86,7.86,0,0,1-2.3-.34L593.83,516a13.75,13.75,0,1,0,6.06-26.09ZM682,496.3a13.77,13.77,0,0,0-13.75,13.75A13.77,13.77,0,0,0,682,523.8a13.75,13.75,0,1,0,0-27.5Zm6.24,18.76a8,8,0,0,1-6.24,3,7.55,7.55,0,0,1-2.3-.35,7.91,7.91,0,0,1-2.71-1.41,7.81,7.81,0,0,1-2-2.34,8,8,0,1,1,13.22,1.11Zm65.36-14a13.75,13.75,0,1,0,13.75,13.75A13.77,13.77,0,0,0,753.57,501Zm6.24,18.76a8,8,0,0,1-6.25,3,7.57,7.57,0,0,1-2.16-.31,7.9,7.9,0,0,1-2.84-1.45,7.75,7.75,0,0,1-1.91-2.23,8,8,0,1,1,13.16,1Zm57.08,30.3a13.77,13.77,0,0,0-13.75,13.75,13.77,13.77,0,0,0,13.75,13.75,13.75,13.75,0,0,0,0-27.5Zm6,18.53a7.94,7.94,0,0,1-5.37,2.94,6.64,6.64,0,0,1-.89.05,7.75,7.75,0,0,1-2.2-.31,8.1,8.1,0,0,1-2.79-1.45,7.85,7.85,0,0,1-1.93-2.26,8,8,0,1,1,13.18,1Zm108.08-35.28A13.75,13.75,0,0,0,920,555.42a14.06,14.06,0,0,0,4.59,3.87h0a13.75,13.75,0,1,0,6.34-25.95Zm6.23,18.76a7.93,7.93,0,0,1-5.37,2.94,8.65,8.65,0,0,1-.88.05,8,8,0,0,1-7.12-4.4,8,8,0,1,1,13.37,1.41Zm-120.27-2a13.77,13.77,0,0,0-13.75,13.75,13.77,13.77,0,0,0,13.75,13.75,13.75,13.75,0,0,0,0-27.5Zm6,18.53a7.94,7.94,0,0,1-5.37,2.94,6.64,6.64,0,0,1-.89.05,7.75,7.75,0,0,1-2.2-.31,8.1,8.1,0,0,1-2.79-1.45,7.85,7.85,0,0,1-1.93-2.26,8,8,0,1,1,13.18,1Zm-223-78.73a13.75,13.75,0,0,0-10.74,22.33l3.76-4.68a8,8,0,0,1,12-10.14,8,8,0,0,1-5,14.23,7.86,7.86,0,0,1-2.3-.34L593.83,516a13.75,13.75,0,1,0,6.06-26.09Zm0,0a13.75,13.75,0,0,0-10.74,22.33,13.92,13.92,0,0,0,4.68,3.76,13.75,13.75,0,1,0,6.06-26.09Zm6.24,18.76a8,8,0,0,1-6.24,3,7.86,7.86,0,0,1-2.3-.34,7.76,7.76,0,0,1-2.71-1.42,8,8,0,0,1-2.94-5.37,8,8,0,0,1,13-7.1A8,8,0,0,1,606.13,508.65ZM682,496.3a13.77,13.77,0,0,0-13.75,13.75A13.77,13.77,0,0,0,682,523.8a13.75,13.75,0,1,0,0-27.5Zm6.24,18.76a8,8,0,0,1-6.24,3,7.55,7.55,0,0,1-2.3-.35,7.91,7.91,0,0,1-2.71-1.41,7.81,7.81,0,0,1-2-2.34,8,8,0,1,1,13.22,1.11Zm65.36-14a13.75,13.75,0,1,0,13.75,13.75A13.77,13.77,0,0,0,753.57,501Zm6.24,18.76a8,8,0,0,1-6.25,3,7.57,7.57,0,0,1-2.16-.31,7.9,7.9,0,0,1-2.84-1.45,7.75,7.75,0,0,1-1.91-2.23,8,8,0,1,1,13.16,1Zm57.08,30.3a13.77,13.77,0,0,0-13.75,13.75,13.77,13.77,0,0,0,13.75,13.75,13.75,13.75,0,0,0,0-27.5Zm6,18.53a7.94,7.94,0,0,1-5.37,2.94,6.64,6.64,0,0,1-.89.05,7.75,7.75,0,0,1-2.2-.31,8.1,8.1,0,0,1-2.79-1.45,7.85,7.85,0,0,1-1.93-2.26,8,8,0,1,1,13.18,1Zm108.08-35.28A13.75,13.75,0,0,0,920,555.42a14.06,14.06,0,0,0,4.59,3.87h0a13.75,13.75,0,1,0,6.34-25.95Zm6.23,18.76a7.93,7.93,0,0,1-5.37,2.94,8.65,8.65,0,0,1-.88.05,8,8,0,0,1-7.12-4.4,8,8,0,1,1,13.37,1.41Zm-120.27-2a13.77,13.77,0,0,0-13.75,13.75,13.77,13.77,0,0,0,13.75,13.75,13.75,13.75,0,0,0,0-27.5Zm6,18.53a7.94,7.94,0,0,1-5.37,2.94,6.64,6.64,0,0,1-.89.05,7.75,7.75,0,0,1-2.2-.31,8.1,8.1,0,0,1-2.79-1.45,7.85,7.85,0,0,1-1.93-2.26,8,8,0,1,1,13.18,1Zm-223-78.73a13.75,13.75,0,0,0-10.74,22.33,13.92,13.92,0,0,0,4.68,3.76,13.75,13.75,0,1,0,6.06-26.09Zm6.24,18.76a8,8,0,0,1-6.24,3,7.86,7.86,0,0,1-2.3-.34,7.76,7.76,0,0,1-2.71-1.42,8,8,0,0,1-2.94-5.37,8,8,0,0,1,13-7.1A8,8,0,0,1,606.13,508.65Zm-6.24-18.76a13.75,13.75,0,0,0-10.74,22.33,13.92,13.92,0,0,0,4.68,3.76,13.75,13.75,0,1,0,6.06-26.09Zm6.24,18.76a8,8,0,0,1-6.24,3,7.86,7.86,0,0,1-2.3-.34,7.76,7.76,0,0,1-2.71-1.42,8,8,0,0,1-2.94-5.37,8,8,0,0,1,13-7.1A8,8,0,0,1,606.13,508.65ZM682,496.3a13.77,13.77,0,0,0-13.75,13.75A13.77,13.77,0,0,0,682,523.8a13.75,13.75,0,1,0,0-27.5Zm6.24,18.76a8,8,0,0,1-6.24,3,7.55,7.55,0,0,1-2.3-.35,7.91,7.91,0,0,1-2.71-1.41,7.81,7.81,0,0,1-2-2.34,8,8,0,1,1,13.22,1.11Zm65.36-14a13.75,13.75,0,1,0,13.75,13.75A13.77,13.77,0,0,0,753.57,501Zm6.24,18.76a8,8,0,0,1-6.25,3,7.57,7.57,0,0,1-2.16-.31,7.9,7.9,0,0,1-2.84-1.45,7.75,7.75,0,0,1-1.91-2.23,8,8,0,1,1,13.16,1Zm57.08,30.3a13.77,13.77,0,0,0-13.75,13.75,13.77,13.77,0,0,0,13.75,13.75,13.75,13.75,0,0,0,0-27.5Zm6,18.53a7.94,7.94,0,0,1-5.37,2.94,6.64,6.64,0,0,1-.89.05,7.75,7.75,0,0,1-2.2-.31,8.1,8.1,0,0,1-2.79-1.45,7.85,7.85,0,0,1-1.93-2.26,8,8,0,1,1,13.18,1Zm108.08-35.28A13.75,13.75,0,0,0,920,555.42a14.06,14.06,0,0,0,4.59,3.87h0a13.75,13.75,0,1,0,6.34-25.95Zm6.23,18.76a7.93,7.93,0,0,1-5.37,2.94,8.65,8.65,0,0,1-.88.05,8,8,0,0,1-7.12-4.4,8,8,0,1,1,13.37,1.41Zm-120.27-2a13.77,13.77,0,0,0-13.75,13.75,13.77,13.77,0,0,0,13.75,13.75,13.75,13.75,0,0,0,0-27.5Zm6,18.53a7.94,7.94,0,0,1-5.37,2.94,6.64,6.64,0,0,1-.89.05,7.75,7.75,0,0,1-2.2-.31,8.1,8.1,0,0,1-2.79-1.45,7.85,7.85,0,0,1-1.93-2.26,8,8,0,1,1,13.18,1ZM542.22,442.37a13.74,13.74,0,0,0-10.93,22.08l3.79-4.72a8,8,0,1,1,8,4.34,6.58,6.58,0,0,1-.88.05,7.84,7.84,0,0,1-2.6-.44l-3.73,4.64a13.75,13.75,0,1,0,6.34-25.95Zm0,0A13.75,13.75,0,1,0,556,456.12,13.77,13.77,0,0,0,542.22,442.37Zm6.24,18.76a7.94,7.94,0,0,1-5.37,2.94,6.58,6.58,0,0,1-.88.05,7.84,7.84,0,0,1-2.6-.44,8,8,0,1,1,8.85-2.55Zm51.43,28.76a13.75,13.75,0,0,0-10.74,22.33,13.92,13.92,0,0,0,4.68,3.76,13.75,13.75,0,1,0,6.06-26.09Zm6.24,18.76a8,8,0,0,1-6.24,3,7.86,7.86,0,0,1-2.3-.34,7.76,7.76,0,0,1-2.71-1.42,8,8,0,0,1-2.94-5.37,8,8,0,0,1,13-7.1A8,8,0,0,1,606.13,508.65ZM682,496.3a13.77,13.77,0,0,0-13.75,13.75A13.77,13.77,0,0,0,682,523.8a13.75,13.75,0,1,0,0-27.5Zm6.24,18.76a8,8,0,0,1-6.24,3,7.55,7.55,0,0,1-2.3-.35,7.91,7.91,0,0,1-2.71-1.41,7.81,7.81,0,0,1-2-2.34,8,8,0,1,1,13.22,1.11Zm65.36-14a13.75,13.75,0,1,0,13.75,13.75A13.77,13.77,0,0,0,753.57,501Zm6.24,18.76a8,8,0,0,1-6.25,3,7.57,7.57,0,0,1-2.16-.31,7.9,7.9,0,0,1-2.84-1.45,7.75,7.75,0,0,1-1.91-2.23,8,8,0,1,1,13.16,1Zm57.08,30.3a13.77,13.77,0,0,0-13.75,13.75,13.77,13.77,0,0,0,13.75,13.75,13.75,13.75,0,0,0,0-27.5Zm6,18.53a7.94,7.94,0,0,1-5.37,2.94,6.64,6.64,0,0,1-.89.05,7.75,7.75,0,0,1-2.2-.31,8.1,8.1,0,0,1-2.79-1.45,7.85,7.85,0,0,1-1.93-2.26,8,8,0,1,1,13.18,1Zm108.08-35.28A13.75,13.75,0,0,0,920,555.42a14.06,14.06,0,0,0,4.59,3.87h0a13.75,13.75,0,1,0,6.34-25.95Zm6.23,18.76a7.93,7.93,0,0,1-5.37,2.94,8.65,8.65,0,0,1-.88.05,8,8,0,0,1-7.12-4.4,8,8,0,1,1,13.37,1.41Zm-120.27-2a13.77,13.77,0,0,0-13.75,13.75,13.77,13.77,0,0,0,13.75,13.75,13.75,13.75,0,0,0,0-27.5Zm6,18.53a7.94,7.94,0,0,1-5.37,2.94,6.64,6.64,0,0,1-.89.05,7.75,7.75,0,0,1-2.2-.31,8.1,8.1,0,0,1-2.79-1.45,7.85,7.85,0,0,1-1.93-2.26,8,8,0,1,1,13.18,1ZM542.22,442.37A13.75,13.75,0,1,0,556,456.12,13.77,13.77,0,0,0,542.22,442.37Zm6.24,18.76a7.94,7.94,0,0,1-5.37,2.94,6.58,6.58,0,0,1-.88.05,7.84,7.84,0,0,1-2.6-.44,8,8,0,1,1,8.85-2.55Zm-6.24-18.76A13.75,13.75,0,1,0,556,456.12,13.77,13.77,0,0,0,542.22,442.37Zm6.24,18.76a7.94,7.94,0,0,1-5.37,2.94,6.58,6.58,0,0,1-.88.05,7.84,7.84,0,0,1-2.6-.44,8,8,0,1,1,8.85-2.55Zm51.43,28.76a13.75,13.75,0,0,0-10.74,22.33,13.92,13.92,0,0,0,4.68,3.76,13.75,13.75,0,1,0,6.06-26.09Zm6.24,18.76a8,8,0,0,1-6.24,3,7.86,7.86,0,0,1-2.3-.34,7.76,7.76,0,0,1-2.71-1.42,8,8,0,0,1-2.94-5.37,8,8,0,0,1,13-7.1A8,8,0,0,1,606.13,508.65ZM682,496.3a13.77,13.77,0,0,0-13.75,13.75A13.77,13.77,0,0,0,682,523.8a13.75,13.75,0,1,0,0-27.5Zm6.24,18.76a8,8,0,0,1-6.24,3,7.55,7.55,0,0,1-2.3-.35,7.91,7.91,0,0,1-2.71-1.41,7.81,7.81,0,0,1-2-2.34,8,8,0,1,1,13.22,1.11Zm65.36-14a13.75,13.75,0,1,0,13.75,13.75A13.77,13.77,0,0,0,753.57,501Zm6.24,18.76a8,8,0,0,1-6.25,3,7.57,7.57,0,0,1-2.16-.31,7.9,7.9,0,0,1-2.84-1.45,7.75,7.75,0,0,1-1.91-2.23,8,8,0,1,1,13.16,1Zm57.08,30.3a13.77,13.77,0,0,0-13.75,13.75,13.77,13.77,0,0,0,13.75,13.75,13.75,13.75,0,0,0,0-27.5Zm6,18.53a7.94,7.94,0,0,1-5.37,2.94,6.64,6.64,0,0,1-.89.05,7.75,7.75,0,0,1-2.2-.31,8.1,8.1,0,0,1-2.79-1.45,7.85,7.85,0,0,1-1.93-2.26,8,8,0,1,1,13.18,1Zm108.08-35.28A13.75,13.75,0,0,0,920,555.42a14.06,14.06,0,0,0,4.59,3.87h0a13.75,13.75,0,1,0,6.34-25.95Zm6.23,18.76a7.93,7.93,0,0,1-5.37,2.94,8.65,8.65,0,0,1-.88.05,8,8,0,0,1-7.12-4.4,8,8,0,1,1,13.37,1.41Zm-120.27-2a13.77,13.77,0,0,0-13.75,13.75,13.77,13.77,0,0,0,13.75,13.75,13.75,13.75,0,0,0,0-27.5Zm6,18.53a7.94,7.94,0,0,1-5.37,2.94,6.64,6.64,0,0,1-.89.05,7.75,7.75,0,0,1-2.2-.31,8.1,8.1,0,0,1-2.79-1.45,7.85,7.85,0,0,1-1.93-2.26,8,8,0,1,1,13.18,1ZM542.22,442.37A13.75,13.75,0,1,0,556,456.12,13.77,13.77,0,0,0,542.22,442.37Zm6.24,18.76a7.94,7.94,0,0,1-5.37,2.94,6.58,6.58,0,0,1-.88.05,7.84,7.84,0,0,1-2.6-.44,8,8,0,1,1,8.85-2.55Zm51.43,28.76a13.75,13.75,0,0,0-10.74,22.33,13.92,13.92,0,0,0,4.68,3.76,13.75,13.75,0,1,0,6.06-26.09Zm6.24,18.76a8,8,0,0,1-6.24,3,7.86,7.86,0,0,1-2.3-.34,7.76,7.76,0,0,1-2.71-1.42,8,8,0,0,1-2.94-5.37,8,8,0,0,1,13-7.1A8,8,0,0,1,606.13,508.65ZM682,496.3a13.77,13.77,0,0,0-13.75,13.75A13.77,13.77,0,0,0,682,523.8a13.75,13.75,0,1,0,0-27.5Zm6.24,18.76a8,8,0,0,1-6.24,3,7.55,7.55,0,0,1-2.3-.35,7.91,7.91,0,0,1-2.71-1.41,7.81,7.81,0,0,1-2-2.34,8,8,0,1,1,13.22,1.11Zm65.36-14a13.75,13.75,0,1,0,13.75,13.75A13.77,13.77,0,0,0,753.57,501Zm6.24,18.76a8,8,0,0,1-6.25,3,7.57,7.57,0,0,1-2.16-.31,7.9,7.9,0,0,1-2.84-1.45,7.75,7.75,0,0,1-1.91-2.23,8,8,0,1,1,13.16,1Zm57.08,30.3a13.77,13.77,0,0,0-13.75,13.75,13.77,13.77,0,0,0,13.75,13.75,13.75,13.75,0,0,0,0-27.5Zm6,18.53a7.94,7.94,0,0,1-5.37,2.94,6.64,6.64,0,0,1-.89.05,7.75,7.75,0,0,1-2.2-.31,8.1,8.1,0,0,1-2.79-1.45,7.85,7.85,0,0,1-1.93-2.26,8,8,0,1,1,13.18,1Zm108.08-35.28A13.75,13.75,0,0,0,920,555.42a14.06,14.06,0,0,0,4.59,3.87h0a13.75,13.75,0,1,0,6.34-25.95Zm6.23,18.76a7.93,7.93,0,0,1-5.37,2.94,8.65,8.65,0,0,1-.88.05,8,8,0,0,1-7.12-4.4,8,8,0,1,1,13.37,1.41Zm-120.27-2a13.77,13.77,0,0,0-13.75,13.75,13.77,13.77,0,0,0,13.75,13.75,13.75,13.75,0,0,0,0-27.5Zm6,18.53a7.94,7.94,0,0,1-5.37,2.94,6.64,6.64,0,0,1-.89.05,7.75,7.75,0,0,1-2.2-.31,8.1,8.1,0,0,1-2.79-1.45,7.85,7.85,0,0,1-1.93-2.26,8,8,0,1,1,13.18,1ZM753.57,501a13.75,13.75,0,1,0,13.75,13.75A13.77,13.77,0,0,0,753.57,501Zm6.24,18.76a8,8,0,0,1-6.25,3,7.57,7.57,0,0,1-2.16-.31,7.9,7.9,0,0,1-2.84-1.45,7.75,7.75,0,0,1-1.91-2.23,8,8,0,1,1,13.16,1Zm57.08,30.3a13.77,13.77,0,0,0-13.75,13.75,13.77,13.77,0,0,0,13.75,13.75,13.75,13.75,0,0,0,0-27.5Zm6,18.53a7.94,7.94,0,0,1-5.37,2.94,6.64,6.64,0,0,1-.89.05,7.75,7.75,0,0,1-2.2-.31,8.1,8.1,0,0,1-2.79-1.45,7.85,7.85,0,0,1-1.93-2.26,8,8,0,1,1,13.18,1Zm108.08-35.28A13.75,13.75,0,0,0,920,555.42a14.06,14.06,0,0,0,4.59,3.87h0a13.75,13.75,0,1,0,6.34-25.95Zm6.23,18.76a7.93,7.93,0,0,1-5.37,2.94,8.65,8.65,0,0,1-.88.05,8,8,0,0,1-7.12-4.4,8,8,0,1,1,13.37,1.41ZM535,427.8c-17.85,2.57-23.31,2.53-26.63,7.07-7.86,10.77,6.41,33.56,12.5,42.56l6.6-8.21a19.71,19.71,0,1,1,4.62,3.84l-7.79,9.69a61.05,61.05,0,0,0,7.26,9.44,65.47,65.47,0,0,0,12.84,10.4c6.14,4,14.67,9.41,25.42,15.48l.06,0,.12.07,9.17,6.49,6.18-7.69a19.73,19.73,0,1,1,4.67,3.76l-5.94,7.4a182.64,182.64,0,0,0,70.32,11.39q6.51-8.09,13-16.16a19.78,19.78,0,1,1,4.68,3.77l-10.6,13.14a322.2,322.2,0,0,1,64,7.58l14-19.23a19.69,19.69,0,1,1,4.81,3.6l-16,22h0q2.31,4.5,4.78,9.08c2.08,3.88,4.18,7.66,6.27,11.35-.59-2.72-1.12-5.63-1.54-8.71-.22-1.63-.4-3.22-.55-4.76a88.18,88.18,0,0,0,11.84,20.59,33.05,33.05,0,0,1-2.88-8.62,33.53,33.53,0,0,1-.5-7.63q4.26,9.75,8.5,19.5a21.54,21.54,0,0,1-.51-14.36,53.25,53.25,0,0,0,2.14,8.49A53.89,53.89,0,0,0,761.6,591a50,50,0,0,1-2.25-9.87,53.05,53.05,0,0,1-.38-5.75c1.56,9.15,5,12.78,6.5,14.12,2.25,2,10.23,7.48,10.26,7.51l0,0,0,0,8.5,4.37,18.12-24.17a19.68,19.68,0,1,1,4.7,3.74l-17.41,23.22c14.27,6.92,26,9.47,30.53,9.27a52.88,52.88,0,0,0,5.94-.66,48,48,0,0,0,6.29-1.57,154.74,154.74,0,0,0,36.08-17.13l24.56-13.61.06,0L904,575.38l1.2-1.49,11-13.71a19.76,19.76,0,1,1,4.62,3.84l-9.91,12.34,3.12,1.12c2.15,1.11,5.56,2.87,9.82,5,5.37,2.73,6.92,3.48,9.16,3.5a13.32,13.32,0,0,0,8.52-3.44,53,53,0,0,0,19-20.48,52.34,52.34,0,0,0,5.75-20.75,19.12,19.12,0,0,1,1.5,2.17,19.82,19.82,0,0,1,2.65,8.32,63.9,63.9,0,0,0,2-21.26c-.15-1.74-.3-3.48-.46-5.23A29.65,29.65,0,0,1,976.47,541c.44-2.92.81-6,1.09-9.17a156,156,0,0,0,.5-19.5,33.6,33.6,0,0,1,3.41,6.59c2.75,7.15,2.18,13.17,2.5,13.16s1.09-6.44.5-15.16a97.62,97.62,0,0,0-2.83-17.67,38.91,38.91,0,0,1,9.5,20.5L1005,458.27s0-.1,0-.15a117.9,117.9,0,0,1,11.73-26c28.14-46.25,82.08-60.8,78.11-76.24-.65-2.54-5.61-7.26-9-10.72a20.59,20.59,0,0,0-3.94-2.64c-2.11-1.13-4.05-2.17-6.54-2a8.55,8.55,0,0,0-3.9,1.29l-6.27-6.37-8.26-4.3-8.2-1a20.94,20.94,0,0,1,10.5,8.75,19.79,19.79,0,0,1,2.53,7.19l-8.11,3.6a2.51,2.51,0,0,0-1,.12,2.37,2.37,0,0,0-.81.48,8.47,8.47,0,0,0-4.61-3.56,8.28,8.28,0,0,0-4.08-.17,7.36,7.36,0,0,1,4.25,3,7.1,7.1,0,0,1,1,2.38,1.51,1.51,0,0,1-.49.58,1.44,1.44,0,0,1-1,.19,14.33,14.33,0,0,0-2.66-1.9,14.15,14.15,0,0,0-5.33-1.67,5.07,5.07,0,0,1,3.26,3,4.65,4.65,0,0,1,0,3c-2.23,1.17-5.14,2.7-8.57,4.46-14.54,7.49-16.68,8.27-18.23,7.33-1.92-1.17-3.42-5-.38-17.79,17.58-21.93,30.52-38.42,37-46,.43-.49,2.06-2.32,4-5a73.17,73.17,0,0,0,5.19-8,64,64,0,0,0,4-8.66s.16-.43.3-.85c7.72-22.66-1.31-44.32-12-69-11.56-26.66-17.34-40-27-42-13.74-2.86-21.38,16.26-72.23,63.45-14.05,13-27.85,24.94-48.5,31-3,.88-2.93.69-25,5-27.22,5.31-40.83,8-48.17,9.92-22.62,6-34.78,9.24-47.83,19.08-10.82,8.16-10.16,11.75-23,23a117.9,117.9,0,0,1-10.11,8c-4.5,3.15-7.86,5.53-11.89,7.92a130.11,130.11,0,0,1-16,8.1c-22.34,9.61-52.23,48.82-96.72,64.51-9.71,3.43-21.59,5.54-45.33,9.75C566.08,422,550.64,425.55,535,427.8ZM924.58,559.29h0a13.74,13.74,0,1,0-4.6-3.87A14.06,14.06,0,0,0,924.58,559.29Zm-1.65-12.21a8,8,0,1,1,8.86,8,8.65,8.65,0,0,1-.88.05,8,8,0,0,1-7.12-4.4A8,8,0,0,1,922.93,547.08ZM810.76,576.14a13.6,13.6,0,0,0,6.13,1.45,13.75,13.75,0,1,0-13.75-13.75,13.77,13.77,0,0,0,7.62,12.3Zm-2.11-11.66a8,8,0,1,1,8.83,7.08,6.64,6.64,0,0,1-.89.05,7.75,7.75,0,0,1-2.2-.31,8.1,8.1,0,0,1-2.79-1.45,7.85,7.85,0,0,1-1.93-2.26A8,8,0,0,1,808.65,564.48ZM747.89,527.3a13.78,13.78,0,1,0-4.8-3.63A13.82,13.82,0,0,0,747.89,527.3Zm-2.32-12.53a8,8,0,1,1,8,8,7.57,7.57,0,0,1-2.16-.31,7.9,7.9,0,0,1-2.84-1.45,7.75,7.75,0,0,1-1.91-2.23A8,8,0,0,1,745.57,514.77Zm71.32,35.32a13.77,13.77,0,0,0-13.75,13.75,13.77,13.77,0,0,0,13.75,13.75,13.75,13.75,0,0,0,0-27.5Zm6,18.53a7.94,7.94,0,0,1-5.37,2.94,6.64,6.64,0,0,1-.89.05,7.75,7.75,0,0,1-2.2-.31,8.1,8.1,0,0,1-2.79-1.45,7.85,7.85,0,0,1-1.93-2.26,8,8,0,1,1,13.18,1Zm108.08-35.28A13.75,13.75,0,0,0,920,555.42a14.06,14.06,0,0,0,4.59,3.87h0a13.75,13.75,0,1,0,6.34-25.95Zm6.23,18.76a7.93,7.93,0,0,1-5.37,2.94,8.65,8.65,0,0,1-.88.05,8,8,0,0,1-7.12-4.4,8,8,0,1,1,13.37,1.41Zm-120.27-2a13.77,13.77,0,0,0-13.75,13.75,13.77,13.77,0,0,0,13.75,13.75,13.75,13.75,0,0,0,0-27.5Zm6,18.53a7.94,7.94,0,0,1-5.37,2.94,6.64,6.64,0,0,1-.89.05,7.75,7.75,0,0,1-2.2-.31,8.1,8.1,0,0,1-2.79-1.45,7.85,7.85,0,0,1-1.93-2.26,8,8,0,1,1,13.18,1ZM753.57,501a13.75,13.75,0,1,0,13.75,13.75A13.77,13.77,0,0,0,753.57,501Zm6.24,18.76a8,8,0,0,1-6.25,3,7.57,7.57,0,0,1-2.16-.31,7.9,7.9,0,0,1-2.84-1.45,7.75,7.75,0,0,1-1.91-2.23,8,8,0,1,1,13.16,1ZM682,496.3a13.77,13.77,0,0,0-13.75,13.75A13.77,13.77,0,0,0,682,523.8a13.75,13.75,0,1,0,0-27.5Zm6.24,18.76a8,8,0,0,1-6.24,3,7.55,7.55,0,0,1-2.3-.35,7.91,7.91,0,0,1-2.71-1.41,7.81,7.81,0,0,1-2-2.34,8,8,0,1,1,13.22,1.11Zm-88.32-25.17a13.75,13.75,0,0,0-10.74,22.33,13.92,13.92,0,0,0,4.68,3.76,13.75,13.75,0,1,0,6.06-26.09Zm6.24,18.76a8,8,0,0,1-6.24,3,7.86,7.86,0,0,1-2.3-.34,7.76,7.76,0,0,1-2.71-1.42,8,8,0,0,1-2.94-5.37,8,8,0,0,1,13-7.1A8,8,0,0,1,606.13,508.65Zm-63.91-66.28A13.75,13.75,0,1,0,556,456.12,13.77,13.77,0,0,0,542.22,442.37Zm6.24,18.76a7.94,7.94,0,0,1-5.37,2.94,6.58,6.58,0,0,1-.88.05,7.84,7.84,0,0,1-2.6-.44,8,8,0,1,1,8.85-2.55Zm268.43,89a13.77,13.77,0,0,0-13.75,13.75,13.77,13.77,0,0,0,13.75,13.75,13.75,13.75,0,0,0,0-27.5Zm6,18.53a7.94,7.94,0,0,1-5.37,2.94,6.64,6.64,0,0,1-.89.05,7.75,7.75,0,0,1-2.2-.31,8.1,8.1,0,0,1-2.79-1.45,7.85,7.85,0,0,1-1.93-2.26,8,8,0,1,1,13.18,1Zm108.08-35.28A13.75,13.75,0,0,0,920,555.42a14.06,14.06,0,0,0,4.59,3.87h0a13.75,13.75,0,1,0,6.34-25.95Zm6.23,18.76a7.93,7.93,0,0,1-5.37,2.94,8.65,8.65,0,0,1-.88.05,8,8,0,0,1-7.12-4.4,8,8,0,1,1,13.37,1.41Zm-120.27-2a13.77,13.77,0,0,0-13.75,13.75,13.77,13.77,0,0,0,13.75,13.75,13.75,13.75,0,0,0,0-27.5Zm6,18.53a7.94,7.94,0,0,1-5.37,2.94,6.64,6.64,0,0,1-.89.05,7.75,7.75,0,0,1-2.2-.31,8.1,8.1,0,0,1-2.79-1.45,7.85,7.85,0,0,1-1.93-2.26,8,8,0,1,1,13.18,1ZM753.57,501a13.75,13.75,0,1,0,13.75,13.75A13.77,13.77,0,0,0,753.57,501Zm6.24,18.76a8,8,0,0,1-6.25,3,7.57,7.57,0,0,1-2.16-.31,7.9,7.9,0,0,1-2.84-1.45,7.75,7.75,0,0,1-1.91-2.23,8,8,0,1,1,13.16,1ZM682,496.3a13.77,13.77,0,0,0-13.75,13.75A13.77,13.77,0,0,0,682,523.8a13.75,13.75,0,1,0,0-27.5Zm6.24,18.76a8,8,0,0,1-6.24,3,7.55,7.55,0,0,1-2.3-.35,7.91,7.91,0,0,1-2.71-1.41,7.81,7.81,0,0,1-2-2.34,8,8,0,1,1,13.22,1.11Zm-88.32-25.17a13.75,13.75,0,0,0-10.74,22.33,13.92,13.92,0,0,0,4.68,3.76,13.75,13.75,0,1,0,6.06-26.09Zm6.24,18.76a8,8,0,0,1-6.24,3,7.86,7.86,0,0,1-2.3-.34,7.76,7.76,0,0,1-2.71-1.42,8,8,0,0,1-2.94-5.37,8,8,0,0,1,13-7.1A8,8,0,0,1,606.13,508.65Zm-63.91-66.28A13.75,13.75,0,1,0,556,456.12,13.77,13.77,0,0,0,542.22,442.37Zm6.24,18.76a7.94,7.94,0,0,1-5.37,2.94,6.58,6.58,0,0,1-.88.05,7.84,7.84,0,0,1-2.6-.44,8,8,0,1,1,8.85-2.55Zm-6.24-18.76A13.75,13.75,0,1,0,556,456.12,13.77,13.77,0,0,0,542.22,442.37Zm6.24,18.76a7.94,7.94,0,0,1-5.37,2.94,6.58,6.58,0,0,1-.88.05,7.84,7.84,0,0,1-2.6-.44,8,8,0,1,1,8.85-2.55Zm268.43,89a13.77,13.77,0,0,0-13.75,13.75,13.77,13.77,0,0,0,13.75,13.75,13.75,13.75,0,0,0,0-27.5Zm6,18.53a7.94,7.94,0,0,1-5.37,2.94,6.64,6.64,0,0,1-.89.05,7.75,7.75,0,0,1-2.2-.31,8.1,8.1,0,0,1-2.79-1.45,7.85,7.85,0,0,1-1.93-2.26,8,8,0,1,1,13.18,1Zm108.08-35.28A13.75,13.75,0,0,0,920,555.42a14.06,14.06,0,0,0,4.59,3.87h0a13.75,13.75,0,1,0,6.34-25.95Zm6.23,18.76a7.93,7.93,0,0,1-5.37,2.94,8.65,8.65,0,0,1-.88.05,8,8,0,0,1-7.12-4.4,8,8,0,1,1,13.37,1.41Zm-120.27-2a13.77,13.77,0,0,0-13.75,13.75,13.77,13.77,0,0,0,13.75,13.75,13.75,13.75,0,0,0,0-27.5Zm6,18.53a7.94,7.94,0,0,1-5.37,2.94,6.64,6.64,0,0,1-.89.05,7.75,7.75,0,0,1-2.2-.31,8.1,8.1,0,0,1-2.79-1.45,7.85,7.85,0,0,1-1.93-2.26,8,8,0,1,1,13.18,1ZM753.57,501a13.75,13.75,0,1,0,13.75,13.75A13.77,13.77,0,0,0,753.57,501Zm6.24,18.76a8,8,0,0,1-6.25,3,7.57,7.57,0,0,1-2.16-.31,7.9,7.9,0,0,1-2.84-1.45,7.75,7.75,0,0,1-1.91-2.23,8,8,0,1,1,13.16,1ZM682,496.3a13.77,13.77,0,0,0-13.75,13.75A13.77,13.77,0,0,0,682,523.8a13.75,13.75,0,1,0,0-27.5Zm6.24,18.76a8,8,0,0,1-6.24,3,7.55,7.55,0,0,1-2.3-.35,7.91,7.91,0,0,1-2.71-1.41,7.81,7.81,0,0,1-2-2.34,8,8,0,1,1,13.22,1.11Zm-88.32-25.17a13.75,13.75,0,0,0-10.74,22.33,13.92,13.92,0,0,0,4.68,3.76,13.75,13.75,0,1,0,6.06-26.09Zm6.24,18.76a8,8,0,0,1-6.24,3,7.86,7.86,0,0,1-2.3-.34,7.76,7.76,0,0,1-2.71-1.42,8,8,0,0,1-2.94-5.37,8,8,0,0,1,13-7.1A8,8,0,0,1,606.13,508.65Zm-63.91-66.28A13.75,13.75,0,1,0,556,456.12,13.77,13.77,0,0,0,542.22,442.37Zm6.24,18.76a7.94,7.94,0,0,1-5.37,2.94,6.58,6.58,0,0,1-.88.05,7.84,7.84,0,0,1-2.6-.44,8,8,0,1,1,8.85-2.55Zm-6.24-18.76A13.75,13.75,0,1,0,556,456.12,13.77,13.77,0,0,0,542.22,442.37Zm6.24,18.76a7.94,7.94,0,0,1-5.37,2.94,6.58,6.58,0,0,1-.88.05,7.84,7.84,0,0,1-2.6-.44,8,8,0,1,1,8.85-2.55Zm268.43,89a13.77,13.77,0,0,0-13.75,13.75,13.77,13.77,0,0,0,13.75,13.75,13.75,13.75,0,0,0,0-27.5Zm6,18.53a7.94,7.94,0,0,1-5.37,2.94,6.64,6.64,0,0,1-.89.05,7.75,7.75,0,0,1-2.2-.31,8.1,8.1,0,0,1-2.79-1.45,7.85,7.85,0,0,1-1.93-2.26,8,8,0,1,1,13.18,1Zm108.08-35.28A13.75,13.75,0,0,0,920,555.42a14.06,14.06,0,0,0,4.59,3.87h0a13.75,13.75,0,1,0,6.34-25.95Zm6.23,18.76a7.93,7.93,0,0,1-5.37,2.94,8.65,8.65,0,0,1-.88.05,8,8,0,0,1-7.12-4.4,8,8,0,1,1,13.37,1.41Zm-120.27-2a13.77,13.77,0,0,0-13.75,13.75,13.77,13.77,0,0,0,13.75,13.75,13.75,13.75,0,0,0,0-27.5Zm6,18.53a7.94,7.94,0,0,1-5.37,2.94,6.64,6.64,0,0,1-.89.05,7.75,7.75,0,0,1-2.2-.31,8.1,8.1,0,0,1-2.79-1.45,7.85,7.85,0,0,1-1.93-2.26,8,8,0,1,1,13.18,1ZM753.57,501a13.75,13.75,0,1,0,13.75,13.75A13.77,13.77,0,0,0,753.57,501Zm6.24,18.76a8,8,0,0,1-6.25,3,7.57,7.57,0,0,1-2.16-.31,7.9,7.9,0,0,1-2.84-1.45,7.75,7.75,0,0,1-1.91-2.23,8,8,0,1,1,13.16,1ZM682,496.3a13.77,13.77,0,0,0-13.75,13.75A13.77,13.77,0,0,0,682,523.8a13.75,13.75,0,1,0,0-27.5Zm6.24,18.76a8,8,0,0,1-6.24,3,7.55,7.55,0,0,1-2.3-.35,7.91,7.91,0,0,1-2.71-1.41,7.81,7.81,0,0,1-2-2.34,8,8,0,1,1,13.22,1.11Zm-88.32-25.17a13.75,13.75,0,0,0-10.74,22.33,13.92,13.92,0,0,0,4.68,3.76,13.75,13.75,0,1,0,6.06-26.09Zm6.24,18.76a8,8,0,0,1-6.24,3,7.86,7.86,0,0,1-2.3-.34,7.76,7.76,0,0,1-2.71-1.42,8,8,0,0,1-2.94-5.37,8,8,0,0,1,13-7.1A8,8,0,0,1,606.13,508.65Zm-63.91-66.28A13.75,13.75,0,1,0,556,456.12,13.77,13.77,0,0,0,542.22,442.37Zm6.24,18.76a7.94,7.94,0,0,1-5.37,2.94,6.58,6.58,0,0,1-.88.05,7.84,7.84,0,0,1-2.6-.44,8,8,0,1,1,8.85-2.55Zm268.43,89a13.77,13.77,0,0,0-13.75,13.75,13.77,13.77,0,0,0,13.75,13.75,13.75,13.75,0,0,0,0-27.5Zm6,18.53a7.94,7.94,0,0,1-5.37,2.94,6.64,6.64,0,0,1-.89.05,7.75,7.75,0,0,1-2.2-.31,8.1,8.1,0,0,1-2.79-1.45,7.85,7.85,0,0,1-1.93-2.26,8,8,0,1,1,13.18,1Zm108.08-35.28A13.75,13.75,0,0,0,920,555.42a14.06,14.06,0,0,0,4.59,3.87h0a13.75,13.75,0,1,0,6.34-25.95Zm6.23,18.76a7.93,7.93,0,0,1-5.37,2.94,8.65,8.65,0,0,1-.88.05,8,8,0,0,1-7.12-4.4,8,8,0,1,1,13.37,1.41Zm-120.27-2a13.77,13.77,0,0,0-13.75,13.75,13.77,13.77,0,0,0,13.75,13.75,13.75,13.75,0,0,0,0-27.5Zm6,18.53a7.94,7.94,0,0,1-5.37,2.94,6.64,6.64,0,0,1-.89.05,7.75,7.75,0,0,1-2.2-.31,8.1,8.1,0,0,1-2.79-1.45,7.85,7.85,0,0,1-1.93-2.26,8,8,0,1,1,13.18,1ZM753.57,501a13.75,13.75,0,1,0,13.75,13.75A13.77,13.77,0,0,0,753.57,501Zm6.24,18.76a8,8,0,0,1-6.25,3,7.57,7.57,0,0,1-2.16-.31,7.9,7.9,0,0,1-2.84-1.45,7.75,7.75,0,0,1-1.91-2.23,8,8,0,1,1,13.16,1ZM682,496.3a13.77,13.77,0,0,0-13.75,13.75A13.77,13.77,0,0,0,682,523.8a13.75,13.75,0,1,0,0-27.5Zm6.24,18.76a8,8,0,0,1-6.24,3,7.55,7.55,0,0,1-2.3-.35,7.91,7.91,0,0,1-2.71-1.41,7.81,7.81,0,0,1-2-2.34,8,8,0,1,1,13.22,1.11Zm-88.32-25.17a13.75,13.75,0,0,0-10.74,22.33,13.92,13.92,0,0,0,4.68,3.76,13.75,13.75,0,1,0,6.06-26.09Zm6.24,18.76a8,8,0,0,1-6.24,3,7.86,7.86,0,0,1-2.3-.34,7.76,7.76,0,0,1-2.71-1.42,8,8,0,0,1-2.94-5.37,8,8,0,0,1,13-7.1A8,8,0,0,1,606.13,508.65Zm-6.24-18.76a13.75,13.75,0,0,0-10.74,22.33l3.76-4.68a8,8,0,0,1,12-10.14,8,8,0,0,1-5,14.23,7.86,7.86,0,0,1-2.3-.34L593.83,516a13.75,13.75,0,1,0,6.06-26.09Zm217,60.2a13.77,13.77,0,0,0-13.75,13.75,13.77,13.77,0,0,0,13.75,13.75,13.75,13.75,0,0,0,0-27.5Zm6,18.53a7.94,7.94,0,0,1-5.37,2.94,6.64,6.64,0,0,1-.89.05,7.75,7.75,0,0,1-2.2-.31,8.1,8.1,0,0,1-2.79-1.45,7.85,7.85,0,0,1-1.93-2.26,8,8,0,1,1,13.18,1Zm108.08-35.28A13.75,13.75,0,0,0,920,555.42a14.06,14.06,0,0,0,4.59,3.87h0a13.75,13.75,0,1,0,6.34-25.95Zm6.23,18.76a7.93,7.93,0,0,1-5.37,2.94,8.65,8.65,0,0,1-.88.05,8,8,0,0,1-7.12-4.4,8,8,0,1,1,13.37,1.41Zm-120.27-2a13.77,13.77,0,0,0-13.75,13.75,13.77,13.77,0,0,0,13.75,13.75,13.75,13.75,0,0,0,0-27.5Zm6,18.53a7.94,7.94,0,0,1-5.37,2.94,6.64,6.64,0,0,1-.89.05,7.75,7.75,0,0,1-2.2-.31,8.1,8.1,0,0,1-2.79-1.45,7.85,7.85,0,0,1-1.93-2.26,8,8,0,1,1,13.18,1ZM753.57,501a13.75,13.75,0,1,0,13.75,13.75A13.77,13.77,0,0,0,753.57,501Zm6.24,18.76a8,8,0,0,1-6.25,3,7.57,7.57,0,0,1-2.16-.31,7.9,7.9,0,0,1-2.84-1.45,7.75,7.75,0,0,1-1.91-2.23,8,8,0,1,1,13.16,1ZM682,496.3a13.77,13.77,0,0,0-13.75,13.75A13.77,13.77,0,0,0,682,523.8a13.75,13.75,0,1,0,0-27.5Zm6.24,18.76a8,8,0,0,1-6.24,3,7.55,7.55,0,0,1-2.3-.35,7.91,7.91,0,0,1-2.71-1.41,7.81,7.81,0,0,1-2-2.34,8,8,0,1,1,13.22,1.11Zm-88.32-25.17a13.75,13.75,0,0,0-10.74,22.33l3.76-4.68a8,8,0,0,1,12-10.14,8,8,0,0,1-5,14.23,7.86,7.86,0,0,1-2.3-.34L593.83,516a13.75,13.75,0,1,0,6.06-26.09Zm217,60.2a13.77,13.77,0,0,0-13.75,13.75,13.77,13.77,0,0,0,13.75,13.75,13.75,13.75,0,0,0,0-27.5Zm6,18.53a7.94,7.94,0,0,1-5.37,2.94,6.64,6.64,0,0,1-.89.05,7.75,7.75,0,0,1-2.2-.31,8.1,8.1,0,0,1-2.79-1.45,7.85,7.85,0,0,1-1.93-2.26,8,8,0,1,1,13.18,1Zm108.08-35.28A13.75,13.75,0,0,0,920,555.42a14.06,14.06,0,0,0,4.59,3.87h0a13.75,13.75,0,1,0,6.34-25.95Zm6.23,18.76a7.93,7.93,0,0,1-5.37,2.94,8.65,8.65,0,0,1-.88.05,8,8,0,0,1-7.12-4.4,8,8,0,1,1,13.37,1.41Zm-120.27-2a13.77,13.77,0,0,0-13.75,13.75,13.77,13.77,0,0,0,13.75,13.75,13.75,13.75,0,0,0,0-27.5Zm6,18.53a7.94,7.94,0,0,1-5.37,2.94,6.64,6.64,0,0,1-.89.05,7.75,7.75,0,0,1-2.2-.31,8.1,8.1,0,0,1-2.79-1.45,7.85,7.85,0,0,1-1.93-2.26,8,8,0,1,1,13.18,1ZM753.57,501a13.75,13.75,0,1,0,13.75,13.75A13.77,13.77,0,0,0,753.57,501Zm6.24,18.76a8,8,0,0,1-6.25,3,7.57,7.57,0,0,1-2.16-.31,7.9,7.9,0,0,1-2.84-1.45,7.75,7.75,0,0,1-1.91-2.23,8,8,0,1,1,13.16,1ZM682,496.3a13.77,13.77,0,0,0-13.75,13.75A13.77,13.77,0,0,0,682,523.8a13.75,13.75,0,1,0,0-27.5Zm6.24,18.76a8,8,0,0,1-6.24,3,7.55,7.55,0,0,1-2.3-.35,7.91,7.91,0,0,1-2.71-1.41,7.81,7.81,0,0,1-2-2.34,8,8,0,1,1,13.22,1.11Zm128.68,35a13.77,13.77,0,0,0-13.75,13.75,13.77,13.77,0,0,0,13.75,13.75,13.75,13.75,0,0,0,0-27.5Zm6,18.53a7.94,7.94,0,0,1-5.37,2.94,6.64,6.64,0,0,1-.89.05,7.75,7.75,0,0,1-2.2-.31,8.1,8.1,0,0,1-2.79-1.45,7.85,7.85,0,0,1-1.93-2.26,8,8,0,1,1,13.18,1Zm108.08-35.28A13.75,13.75,0,0,0,920,555.42a14.06,14.06,0,0,0,4.59,3.87h0a13.75,13.75,0,1,0,6.34-25.95Zm6.23,18.76a7.93,7.93,0,0,1-5.37,2.94,8.65,8.65,0,0,1-.88.05,8,8,0,0,1-7.12-4.4,8,8,0,1,1,13.37,1.41Zm-120.27-2a13.77,13.77,0,0,0-13.75,13.75,13.77,13.77,0,0,0,13.75,13.75,13.75,13.75,0,0,0,0-27.5Zm6,18.53a7.94,7.94,0,0,1-5.37,2.94,6.64,6.64,0,0,1-.89.05,7.75,7.75,0,0,1-2.2-.31,8.1,8.1,0,0,1-2.79-1.45,7.85,7.85,0,0,1-1.93-2.26,8,8,0,1,1,13.18,1ZM753.57,501a13.75,13.75,0,1,0,13.75,13.75A13.77,13.77,0,0,0,753.57,501Zm6.24,18.76a8,8,0,0,1-6.25,3,7.57,7.57,0,0,1-2.16-.31,7.9,7.9,0,0,1-2.84-1.45,7.75,7.75,0,0,1-1.91-2.23,8,8,0,1,1,13.16,1ZM682,496.3a13.77,13.77,0,0,0-13.75,13.75A13.77,13.77,0,0,0,682,523.8a13.75,13.75,0,1,0,0-27.5Zm6.24,18.76a8,8,0,0,1-6.24,3,7.55,7.55,0,0,1-2.3-.35,7.91,7.91,0,0,1-2.71-1.41,7.81,7.81,0,0,1-2-2.34,8,8,0,1,1,13.22,1.11Zm128.68,35a13.77,13.77,0,0,0-13.75,13.75,13.77,13.77,0,0,0,13.75,13.75,13.75,13.75,0,0,0,0-27.5Zm6,18.53a7.94,7.94,0,0,1-5.37,2.94,6.64,6.64,0,0,1-.89.05,7.75,7.75,0,0,1-2.2-.31,8.1,8.1,0,0,1-2.79-1.45,7.85,7.85,0,0,1-1.93-2.26,8,8,0,1,1,13.18,1Zm108.08-35.28A13.75,13.75,0,0,0,920,555.42a14.06,14.06,0,0,0,4.59,3.87h0a13.75,13.75,0,1,0,6.34-25.95Zm6.23,18.76a7.93,7.93,0,0,1-5.37,2.94,8.65,8.65,0,0,1-.88.05,8,8,0,0,1-7.12-4.4,8,8,0,1,1,13.37,1.41Zm-6.23-18.76A13.75,13.75,0,0,0,920,555.42a14.06,14.06,0,0,0,4.59,3.87h0a13.75,13.75,0,1,0,6.34-25.95Zm6.23,18.76a7.93,7.93,0,0,1-5.37,2.94,8.65,8.65,0,0,1-.88.05,8,8,0,0,1-7.12-4.4,8,8,0,1,1,13.37,1.41Zm-120.27-2a13.77,13.77,0,0,0-13.75,13.75,13.77,13.77,0,0,0,13.75,13.75,13.75,13.75,0,0,0,0-27.5Zm6,18.53a7.94,7.94,0,0,1-5.37,2.94,6.64,6.64,0,0,1-.89.05,7.75,7.75,0,0,1-2.2-.31,8.1,8.1,0,0,1-2.79-1.45,7.85,7.85,0,0,1-1.93-2.26,8,8,0,1,1,13.18,1ZM753.57,501a13.75,13.75,0,1,0,13.75,13.75A13.77,13.77,0,0,0,753.57,501Zm6.24,18.76a8,8,0,0,1-6.25,3,7.57,7.57,0,0,1-2.16-.31,7.9,7.9,0,0,1-2.84-1.45,7.75,7.75,0,0,1-1.91-2.23,8,8,0,1,1,13.16,1ZM682,496.3a13.77,13.77,0,0,0-13.75,13.75A13.77,13.77,0,0,0,682,523.8a13.75,13.75,0,1,0,0-27.5Zm6.24,18.76a8,8,0,0,1-6.24,3,7.55,7.55,0,0,1-2.3-.35,7.91,7.91,0,0,1-2.71-1.41,7.81,7.81,0,0,1-2-2.34,8,8,0,1,1,13.22,1.11Zm128.68,35a13.77,13.77,0,0,0-13.75,13.75,13.77,13.77,0,0,0,13.75,13.75,13.75,13.75,0,0,0,0-27.5Zm6,18.53a7.94,7.94,0,0,1-5.37,2.94,6.64,6.64,0,0,1-.89.05,7.75,7.75,0,0,1-2.2-.31,8.1,8.1,0,0,1-2.79-1.45,7.85,7.85,0,0,1-1.93-2.26,8,8,0,1,1,13.18,1Zm108.08-35.28A13.75,13.75,0,0,0,920,555.42l3.8-4.73a8,8,0,1,1,13.37,1.41,7.93,7.93,0,0,1-5.37,2.94,8.65,8.65,0,0,1-.88.05,7.89,7.89,0,0,1-2.6-.44l-3.72,4.64a13.75,13.75,0,1,0,6.34-25.95Zm-114,16.75a13.77,13.77,0,0,0-13.75,13.75,13.77,13.77,0,0,0,13.75,13.75,13.75,13.75,0,0,0,0-27.5Zm6,18.53a7.94,7.94,0,0,1-5.37,2.94,6.64,6.64,0,0,1-.89.05,7.75,7.75,0,0,1-2.2-.31,8.1,8.1,0,0,1-2.79-1.45,7.85,7.85,0,0,1-1.93-2.26,8,8,0,1,1,13.18,1ZM753.57,501a13.75,13.75,0,1,0,13.75,13.75A13.77,13.77,0,0,0,753.57,501Zm6.24,18.76a8,8,0,0,1-6.25,3,7.57,7.57,0,0,1-2.16-.31,7.9,7.9,0,0,1-2.84-1.45,7.75,7.75,0,0,1-1.91-2.23,8,8,0,1,1,13.16,1ZM682,496.3a13.77,13.77,0,0,0-13.75,13.75A13.77,13.77,0,0,0,682,523.8a13.75,13.75,0,1,0,0-27.5Zm6.24,18.76a8,8,0,0,1-6.24,3,7.55,7.55,0,0,1-2.3-.35,7.91,7.91,0,0,1-2.71-1.41,7.81,7.81,0,0,1-2-2.34,8,8,0,1,1,13.22,1.11Zm128.68,35a13.77,13.77,0,0,0-13.75,13.75,13.77,13.77,0,0,0,13.75,13.75,13.75,13.75,0,0,0,0-27.5Zm6,18.53a7.94,7.94,0,0,1-5.37,2.94,6.64,6.64,0,0,1-.89.05,7.75,7.75,0,0,1-2.2-.31,8.1,8.1,0,0,1-2.79-1.45,7.85,7.85,0,0,1-1.93-2.26,8,8,0,1,1,13.18,1Zm108.08-35.28A13.75,13.75,0,0,0,920,555.42l3.8-4.73a8,8,0,1,1,13.37,1.41,7.93,7.93,0,0,1-5.37,2.94,8.65,8.65,0,0,1-.88.05,7.89,7.89,0,0,1-2.6-.44l-3.72,4.64a13.75,13.75,0,1,0,6.34-25.95Zm-114,16.75a13.77,13.77,0,0,0-13.75,13.75,13.77,13.77,0,0,0,13.75,13.75,13.75,13.75,0,0,0,0-27.5Zm6,18.53a7.94,7.94,0,0,1-5.37,2.94,6.64,6.64,0,0,1-.89.05,7.75,7.75,0,0,1-2.2-.31,8.1,8.1,0,0,1-2.79-1.45,7.85,7.85,0,0,1-1.93-2.26,8,8,0,1,1,13.18,1ZM753.57,501a13.75,13.75,0,1,0,13.75,13.75A13.77,13.77,0,0,0,753.57,501Zm6.24,18.76a8,8,0,0,1-6.25,3,7.57,7.57,0,0,1-2.16-.31,7.9,7.9,0,0,1-2.84-1.45,7.75,7.75,0,0,1-1.91-2.23,8,8,0,1,1,13.16,1ZM682,496.3a13.77,13.77,0,0,0-13.75,13.75A13.77,13.77,0,0,0,682,523.8a13.75,13.75,0,1,0,0-27.5Zm6.24,18.76a8,8,0,0,1-6.24,3,7.55,7.55,0,0,1-2.3-.35,7.91,7.91,0,0,1-2.71-1.41,7.81,7.81,0,0,1-2-2.34,8,8,0,1,1,13.22,1.11Zm128.68,35a13.77,13.77,0,0,0-13.75,13.75,13.63,13.63,0,0,0,3,8.51l3.57-4.76a8,8,0,1,1,7.81,4,6.64,6.64,0,0,1-.89.05,7.75,7.75,0,0,1-2.2-.31l-3.63,4.84a13.6,13.6,0,0,0,6.13,1.45,13.75,13.75,0,0,0,0-27.5ZM753.57,501a13.75,13.75,0,1,0,13.75,13.75A13.77,13.77,0,0,0,753.57,501Zm6.24,18.76a8,8,0,0,1-6.25,3,7.57,7.57,0,0,1-2.16-.31,7.9,7.9,0,0,1-2.84-1.45,7.75,7.75,0,0,1-1.91-2.23,8,8,0,1,1,13.16,1ZM682,496.3a13.77,13.77,0,0,0-13.75,13.75A13.77,13.77,0,0,0,682,523.8a13.75,13.75,0,1,0,0-27.5Zm6.24,18.76a8,8,0,0,1-6.24,3,7.55,7.55,0,0,1-2.3-.35,7.91,7.91,0,0,1-2.71-1.41,7.81,7.81,0,0,1-2-2.34,8,8,0,1,1,13.22,1.11Zm128.68,35a13.77,13.77,0,0,0-13.75,13.75,13.63,13.63,0,0,0,3,8.51l3.57-4.76a8,8,0,1,1,7.81,4,6.64,6.64,0,0,1-.89.05,7.75,7.75,0,0,1-2.2-.31l-3.63,4.84a13.6,13.6,0,0,0,6.13,1.45,13.75,13.75,0,0,0,0-27.5ZM753.57,501a13.75,13.75,0,1,0,13.75,13.75A13.77,13.77,0,0,0,753.57,501Zm6.24,18.76a8,8,0,0,1-6.25,3,7.57,7.57,0,0,1-2.16-.31,7.9,7.9,0,0,1-2.84-1.45,7.75,7.75,0,0,1-1.91-2.23,8,8,0,1,1,13.16,1ZM682,496.3a13.77,13.77,0,0,0-13.75,13.75A13.77,13.77,0,0,0,682,523.8a13.75,13.75,0,1,0,0-27.5Zm6.24,18.76a8,8,0,0,1-6.24,3,7.55,7.55,0,0,1-2.3-.35,7.91,7.91,0,0,1-2.71-1.41,7.81,7.81,0,0,1-2-2.34,8,8,0,1,1,13.22,1.11Zm128.68,35a13.77,13.77,0,0,0-13.75,13.75,13.63,13.63,0,0,0,3,8.51l3.57-4.76a8,8,0,1,1,7.81,4,6.64,6.64,0,0,1-.89.05,7.75,7.75,0,0,1-2.2-.31l-3.63,4.84a13.6,13.6,0,0,0,6.13,1.45,13.75,13.75,0,0,0,0-27.5ZM753.57,501a13.75,13.75,0,1,0,13.75,13.75A13.77,13.77,0,0,0,753.57,501Zm6.24,18.76a8,8,0,0,1-6.25,3,7.57,7.57,0,0,1-2.16-.31,7.9,7.9,0,0,1-2.84-1.45,7.75,7.75,0,0,1-1.91-2.23,8,8,0,1,1,13.16,1ZM682,496.3a13.77,13.77,0,0,0-13.75,13.75A13.77,13.77,0,0,0,682,523.8a13.75,13.75,0,1,0,0-27.5Zm6.24,18.76a8,8,0,0,1-6.24,3,7.55,7.55,0,0,1-2.3-.35,7.91,7.91,0,0,1-2.71-1.41,7.81,7.81,0,0,1-2-2.34,8,8,0,1,1,13.22,1.11Zm128.68,35a13.77,13.77,0,0,0-13.75,13.75,13.63,13.63,0,0,0,3,8.51l3.57-4.76a8,8,0,1,1,7.81,4,6.64,6.64,0,0,1-.89.05,7.75,7.75,0,0,1-2.2-.31l-3.63,4.84a13.6,13.6,0,0,0,6.13,1.45,13.75,13.75,0,0,0,0-27.5ZM753.57,501a13.75,13.75,0,1,0,13.75,13.75A13.77,13.77,0,0,0,753.57,501Zm6.24,18.76a8,8,0,0,1-6.25,3,7.57,7.57,0,0,1-2.16-.31,7.9,7.9,0,0,1-2.84-1.45,7.75,7.75,0,0,1-1.91-2.23,8,8,0,1,1,13.16,1ZM682,496.3a13.77,13.77,0,0,0-13.75,13.75A13.77,13.77,0,0,0,682,523.8a13.75,13.75,0,1,0,0-27.5Zm6.24,18.76a8,8,0,0,1-6.24,3,7.55,7.55,0,0,1-2.3-.35,7.91,7.91,0,0,1-2.71-1.41,7.81,7.81,0,0,1-2-2.34,8,8,0,1,1,13.22,1.11Zm65.36-14a13.75,13.75,0,1,0,13.75,13.75A13.77,13.77,0,0,0,753.57,501Zm6.24,18.76a8,8,0,0,1-6.25,3,7.57,7.57,0,0,1-2.16-.31,7.9,7.9,0,0,1-2.84-1.45,7.75,7.75,0,0,1-1.91-2.23,8,8,0,1,1,13.16,1ZM682,496.3a13.77,13.77,0,0,0-13.75,13.75A13.77,13.77,0,0,0,682,523.8a13.75,13.75,0,1,0,0-27.5Zm6.24,18.76a8,8,0,0,1-6.24,3,7.55,7.55,0,0,1-2.3-.35,7.91,7.91,0,0,1-2.71-1.41,7.81,7.81,0,0,1-2-2.34,8,8,0,1,1,13.22,1.11Zm65.36-14a13.74,13.74,0,0,0-10.48,22.64l3.56-4.88a8,8,0,1,1,6.91,4,7.57,7.57,0,0,1-2.16-.31l-3.51,4.83A13.75,13.75,0,1,0,753.57,501ZM682,496.3a13.77,13.77,0,0,0-13.75,13.75A13.77,13.77,0,0,0,682,523.8a13.75,13.75,0,1,0,0-27.5Zm6.24,18.76a8,8,0,0,1-6.24,3,7.55,7.55,0,0,1-2.3-.35,7.91,7.91,0,0,1-2.71-1.41,7.81,7.81,0,0,1-2-2.34,8,8,0,1,1,13.22,1.11ZM682,496.3a13.77,13.77,0,0,0-13.75,13.75A13.77,13.77,0,0,0,682,523.8a13.75,13.75,0,1,0,0-27.5Zm6.24,18.76a8,8,0,0,1-6.24,3,7.55,7.55,0,0,1-2.3-.35,7.91,7.91,0,0,1-2.71-1.41,7.81,7.81,0,0,1-2-2.34,8,8,0,1,1,13.22,1.11ZM682,496.3a13.77,13.77,0,0,0-13.75,13.75A13.77,13.77,0,0,0,682,523.8a13.75,13.75,0,1,0,0-27.5Zm6.24,18.76a8,8,0,0,1-6.24,3,7.55,7.55,0,0,1-2.3-.35,7.91,7.91,0,0,1-2.71-1.41,7.81,7.81,0,0,1-2-2.34,8,8,0,1,1,13.22,1.11ZM682,496.3a13.77,13.77,0,0,0-13.75,13.75A13.77,13.77,0,0,0,682,523.8a13.75,13.75,0,1,0,0-27.5Zm6.24,18.76a8,8,0,0,1-6.24,3,7.55,7.55,0,0,1-2.3-.35,7.91,7.91,0,0,1-2.71-1.41,7.81,7.81,0,0,1-2-2.34,8,8,0,1,1,13.22,1.11ZM682,496.3a13.77,13.77,0,0,0-13.75,13.75A13.77,13.77,0,0,0,682,523.8a13.75,13.75,0,1,0,0-27.5Zm6.24,18.76a8,8,0,0,1-6.24,3,7.55,7.55,0,0,1-2.3-.35,7.91,7.91,0,0,1-2.71-1.41,7.81,7.81,0,0,1-2-2.34,8,8,0,1,1,13.22,1.11Z"/></svg>